<svg width="17" height="14" viewBox="0 0 17 14" fill="none" xmlns="http://www.w3.org/2000/svg">
<path d="M16.2624 1.63805C15.7561 1.86637 15.2002 2.00534 14.6642 2.09469C14.9222 2.05498 15.2995 1.58842 15.4484 1.3998C15.6767 1.11193 15.8752 0.784345 15.9844 0.426978C15.9943 0.397195 16.0043 0.367411 15.9844 0.347561C15.9447 0.337636 15.9249 0.337636 15.8951 0.357486C15.2896 0.675145 14.6642 0.913387 13.9991 1.08214C13.9395 1.09207 13.8998 1.08214 13.87 1.05237C13.8105 0.992803 13.7608 0.933245 13.7012 0.883611C13.4233 0.645361 13.1255 0.456753 12.7781 0.317778C12.3313 0.139095 11.8449 0.059678 11.3684 0.0894613C10.9019 0.119245 10.4452 0.248295 10.0283 0.466678C9.61142 0.68507 9.24408 0.982878 8.94633 1.35017C8.6485 1.71746 8.42017 2.16417 8.311 2.64066C8.20175 3.09729 8.21175 3.544 8.28117 4.00064C8.29117 4.08005 8.28117 4.08999 8.21175 4.08005C5.60095 3.68299 3.43689 2.75979 1.67984 0.754561C1.61036 0.66522 1.57065 0.66522 1.50116 0.764486C0.736792 1.916 1.10408 3.76239 2.06699 4.67567C2.19604 4.79479 2.32509 4.91391 2.46407 5.03304C2.41443 5.03304 1.77911 4.96354 1.21328 4.66574C1.13387 4.62604 1.09416 4.64589 1.09416 4.73523C1.08423 4.86428 1.09416 4.97347 1.11401 5.11243C1.26292 6.27393 2.06699 7.35593 3.1788 7.78276C3.30785 7.84234 3.45675 7.88201 3.59573 7.91184C3.33763 7.96143 3.07953 8.00118 2.35487 7.94159C2.26553 7.92176 2.23575 7.97134 2.26553 8.06076C2.8115 9.53984 3.98288 9.98651 4.85643 10.2347C4.97556 10.2546 5.09468 10.2546 5.2138 10.2843C5.20388 10.2943 5.20388 10.2943 5.19395 10.3042C4.90607 10.7509 3.89353 11.0785 3.42697 11.2473C2.57326 11.545 1.64013 11.684 0.736792 11.5947C0.587892 11.5748 0.558109 11.5748 0.5184 11.5947C0.478692 11.6145 0.508475 11.6543 0.558109 11.6939C0.736792 11.8131 0.9254 11.9223 1.11401 12.0215C1.68977 12.3293 2.28538 12.5675 2.91078 12.7363C6.14692 13.6297 9.78017 12.9745 12.2123 10.5623C14.1182 8.66626 14.7832 6.05551 14.7832 3.44474C14.7832 3.34547 14.9024 3.28591 14.9719 3.23627C15.4683 2.85905 15.8653 2.42227 16.2326 1.916C16.312 1.8068 16.312 1.70754 16.312 1.66783C16.312 1.6579 16.312 1.6579 16.312 1.6579C16.3319 1.59834 16.3319 1.60827 16.2624 1.63805Z" fill="white"/>
</svg>
