<svg width="40" height="41" viewBox="0 0 40 41" fill="none" xmlns="http://www.w3.org/2000/svg">
<g clip-path="url(#clip0_2009_48)">
<path d="M25.2249 5.64721C23.5779 5.13025 21.8222 4.85114 19.9999 4.85114C10.5559 4.85114 2.8999 12.3478 2.8999 21.5953C2.8999 30.8428 10.5559 38.3395 19.9999 38.3395C29.444 38.3395 37.0999 30.8428 37.0999 21.5953C37.0999 19.9814 36.8667 18.4208 36.4316 16.9441" stroke="#FB6262" stroke-width="4"/>
<path d="M33.7325 7.86987H37.4166V10.4779H33.7325V14.555H30.9262V10.4779H27.2319V7.86987H30.9262V3.96271H33.7325V7.86987Z" fill="#FB6262"/>
<path d="M16.7435 28.107H13.4509V17.8435L10.2168 18.7687V16.3269L16.4415 14.2189H16.7435V28.107ZM29.6357 17.9294C29.6357 18.6034 29.4636 19.198 29.1194 19.7131C28.7817 20.2282 28.3142 20.6415 27.7166 20.9531C28.3921 21.2774 28.9278 21.7225 29.324 22.2885C29.7201 22.8481 29.9182 23.5126 29.9182 24.282C29.9182 25.522 29.4798 26.5013 28.6032 27.2199C27.7329 27.9384 26.5315 28.2978 24.9989 28.2978C23.4598 28.2978 22.2454 27.9384 21.3556 27.2199C20.466 26.495 20.0212 25.5157 20.0212 24.282C20.0212 23.538 20.2159 22.8799 20.6056 22.3075C20.9953 21.7353 21.5473 21.2837 22.2617 20.9531C21.6576 20.6415 21.1836 20.2282 20.8394 19.7131C20.4952 19.198 20.3231 18.6034 20.3231 17.9294C20.3231 16.7212 20.7419 15.7673 21.5797 15.0678C22.4175 14.3684 23.5475 14.0186 24.9696 14.0186C26.4049 14.0186 27.5414 14.3684 28.3791 15.0678C29.2168 15.7673 29.6357 16.7212 29.6357 17.9294ZM26.6257 24.0245C26.6257 23.4522 26.4731 23.0134 26.1679 22.7082C25.8691 22.3966 25.4729 22.2407 24.9794 22.2407C24.4859 22.2407 24.0865 22.3966 23.7813 22.7082C23.476 23.0134 23.3234 23.4522 23.3234 24.0245C23.3234 24.5778 23.476 25.0165 23.7813 25.3408C24.093 25.6588 24.4988 25.8178 24.9989 25.8178C25.486 25.8178 25.8789 25.6588 26.1776 25.3408C26.4763 25.0229 26.6257 24.5841 26.6257 24.0245ZM24.9696 16.4986C24.5281 16.4986 24.1903 16.6417 23.9565 16.9278C23.7293 17.2076 23.6157 17.5987 23.6157 18.1011C23.6157 18.5971 23.7325 18.9977 23.9663 19.3029C24.2001 19.6082 24.5443 19.7607 24.9989 19.7607C25.447 19.7607 25.7814 19.6082 26.0023 19.3029C26.2295 18.9977 26.3431 18.5971 26.3431 18.1011C26.3431 17.605 26.2263 17.214 25.9925 16.9278C25.7652 16.6417 25.4243 16.4986 24.9696 16.4986Z" fill="#FB6262"/>
</g>
<defs>
<clipPath id="clip0_2009_48">
<rect width="38" height="40" fill="white" transform="translate(1 0.200012)"/>
</clipPath>
</defs>
</svg>
