<svg width="844" height="297" viewBox="0 0 844 297" fill="none" xmlns="http://www.w3.org/2000/svg">
<path d="M241.761 49.2086C226.399 59.5935 217.65 73.5613 222.206 80.3634C226.763 87.1655 242.902 84.1331 258.253 73.7066C273.604 63.2802 282.344 49.3644 277.797 42.6141C273.251 35.8639 257.101 38.8444 241.761 49.2605V49.2086Z" fill="url(#paint0_linear_4004_2)"/>
<path d="M219.866 70.0556C222.311 62.9764 229.854 54.2322 240.442 47.0902C251.03 39.9482 261.966 36.2201 269.467 36.618L273.354 34L277.8 40.5555V40.6184V40.6812L277.853 40.765C282.33 47.7394 273.312 61.8873 257.583 72.506C241.854 83.1248 225.482 86.1408 220.583 79.4491L216 72.6736L219.866 70.0556Z" fill="url(#paint1_linear_4004_2)"/>
<path d="M236.108 40.7247C220.532 51.6216 211.591 66.1686 216.222 73.2233C220.854 80.278 237.271 77.1615 252.889 66.2753C268.507 55.3891 277.406 40.8314 272.774 33.7767C268.143 26.722 251.726 29.8385 236.108 40.7247Z" fill="url(#paint2_linear_4004_2)"/>
<path d="M222.903 68.2313C226.416 73.5333 239.159 70.9884 251.36 62.5795C263.56 54.1705 270.616 43.0681 267.093 37.7661C263.57 32.4641 250.837 35.0197 238.637 43.418C226.437 51.8164 219.39 62.9505 222.903 68.2313Z" fill="url(#paint3_radial_4004_2)"/>
<path d="M241.826 45.0385L237.575 47.8369L238.638 49.3436C237.427 50.135 236.269 51.0013 235.174 51.9369C234.224 52.7314 233.349 53.6062 232.56 54.5507C231.952 55.2509 231.477 56.0489 231.157 56.9082C231.03 57.2098 230.979 57.5363 231.008 57.8607C231.038 58.1851 231.147 58.4981 231.327 58.7737C231.564 59.1148 231.89 59.3893 232.273 59.5693C232.656 59.7493 233.081 59.8285 233.505 59.7987C234.593 59.7668 235.669 59.5697 236.693 59.2144C237.933 58.8028 239.14 58.3061 240.307 57.7282L243.76 56.0062C244.823 55.4834 245.726 55.0734 246.481 54.7864C247.235 54.4994 247.713 54.4789 247.894 54.7352C248.075 54.9914 247.894 55.1656 247.618 55.5449C247.134 56.0952 246.564 56.569 245.928 56.9491C244.833 57.6889 243.62 58.2499 242.336 58.6097C241.417 58.9388 240.402 58.9168 239.499 58.5482L234.015 62.1358L236.725 66L242.198 62.4125L241.762 61.7872C243.222 61.2634 244.642 60.6435 246.013 59.932L247.14 61.5412L251.39 58.7429L250.328 57.2772C251.581 56.4264 252.729 55.5654 253.792 54.6839C254.75 53.9026 255.636 53.0417 256.438 52.1111C257.047 51.4217 257.526 50.634 257.851 49.7843C257.976 49.4811 258.023 49.1537 257.99 48.8293C257.956 48.5048 257.843 48.1927 257.66 47.9188C257.417 47.576 257.085 47.3009 256.697 47.121C256.309 46.9411 255.879 46.8627 255.45 46.8938C254.361 46.9197 253.284 47.117 252.262 47.4781C250.997 47.895 249.768 48.4056 248.585 49.0053L245.057 50.7479C243.994 51.2809 243.059 51.7011 242.294 52.0189C241.529 52.3366 241.04 52.3571 240.859 52.1009C240.678 51.8446 240.859 51.5884 241.199 51.1784C241.676 50.6917 242.211 50.2616 242.793 49.8971C243.341 49.5353 243.921 49.2197 244.525 48.9541C245.082 48.696 245.662 48.4867 246.258 48.3288C246.745 48.1931 247.249 48.1207 247.756 48.1136C248.132 48.0927 248.505 48.1898 248.819 48.3903L254.366 44.7618L251.72 41L246.183 44.6183L246.629 45.2641C246.194 45.4076 245.673 45.6126 245.057 45.8586C244.44 46.1046 243.75 46.4326 243.006 46.7913L241.794 45.0693L241.826 45.0385Z" fill="url(#paint4_linear_4004_2)"/>
<path d="M241.434 44.0935L237.341 47.0144L238.364 48.5708C237.195 49.3939 236.077 50.2947 235.019 51.2677C234.106 52.0969 233.264 53.0063 232.502 53.986C231.924 54.7193 231.467 55.5481 231.151 56.4379C231.028 56.7516 230.979 57.0912 231.008 57.4286C231.036 57.766 231.142 58.0914 231.315 58.378C231.543 58.7327 231.857 59.0182 232.226 59.2054C232.594 59.3927 233.003 59.475 233.412 59.444C234.46 59.4109 235.496 59.2059 236.482 58.8364C237.678 58.4149 238.841 57.8981 239.96 57.2907L243.286 55.5104C244.137 55.0364 245.011 54.6094 245.905 54.2313C246.642 53.9328 247.092 53.9115 247.266 54.2313C247.44 54.5511 247.266 54.679 247 55.0841C246.53 55.6495 245.982 56.1382 245.373 56.5338C244.319 57.3031 243.151 57.8866 241.915 58.2608C241.036 58.6171 240.061 58.6171 239.183 58.2608L233.914 61.9811L236.512 66L241.782 62.269L241.362 61.6187C242.765 61.0731 244.132 60.4321 245.455 59.6999L246.539 61.3629L250.632 58.4526L249.609 56.9282C250.816 56.0435 251.921 55.148 252.944 54.2313C253.867 53.4188 254.72 52.5234 255.492 51.5556C256.082 50.8412 256.543 50.0213 256.853 49.1357C256.974 48.8212 257.021 48.4812 256.991 48.1437C256.961 47.8063 256.854 47.4813 256.679 47.1956C256.443 46.839 256.121 46.553 255.746 46.366C255.371 46.179 254.955 46.0975 254.541 46.1296C253.493 46.1574 252.456 46.3626 251.471 46.7372C250.254 47.1727 249.071 47.7037 247.931 48.3255L244.544 50.1378C243.521 50.6921 242.621 51.1398 241.874 51.4596C241.127 51.7794 240.666 51.8114 240.493 51.5449C240.319 51.2784 240.493 51.0119 240.82 50.5855C241.279 50.0793 241.794 49.632 242.355 49.253C242.885 48.8805 243.442 48.5526 244.022 48.2722C244.559 48.0054 245.117 47.7878 245.69 47.622C246.159 47.4808 246.645 47.4055 247.133 47.3981C247.495 47.3786 247.853 47.4795 248.156 47.686L253.487 43.9123L250.949 40L245.608 43.763L246.048 44.4346C245.629 44.5839 245.117 44.797 244.524 45.0529C243.93 45.3087 243.265 45.6499 242.549 46.023L241.383 44.2321L241.434 44.0935Z" fill="url(#paint5_linear_4004_2)"/>
<path d="M250.514 62.1535C238.389 70.3834 225.601 72.7319 222.061 67.4115C218.521 62.0912 225.372 51.0764 237.497 42.8465C249.621 34.6166 262.347 32.2577 265.939 37.6508C269.531 43.0439 262.628 53.9755 250.514 62.2055V62.1535ZM235.753 40.2694C220.4 50.6607 211.649 64.6266 216.206 71.381C220.763 78.1354 236.895 75.1635 252.247 64.7306C267.6 54.2977 276.351 40.3734 271.794 33.619C267.237 26.8646 251.105 29.8365 235.753 40.2694Z" fill="url(#paint6_linear_4004_2)"/>
<path style="mix-blend-mode:screen" d="M233 74C234.185 72.4042 235.371 70.777 236.536 69.1395C241.492 67.5464 246.187 65.2304 250.47 62.2658C262.606 54.005 269.521 42.9592 265.923 37.6189C263.75 34.3855 258.249 33.9683 251.552 35.9501C251.697 34.5733 251.76 33.2799 251.781 32.0908C261.056 28.9617 268.845 29.2434 271.788 33.6241C276.353 40.4039 267.629 54.3805 252.207 64.8526C246.35 68.9414 239.861 72.0321 233 74Z" fill="url(#paint7_linear_4004_2)"/>
<path d="M66.6294 186.381C28.3651 174.763 -6.9167 179.087 -12.1184 195.96C-17.3201 212.833 9.68754 235.745 48.0072 247.289C86.3269 258.833 121.508 254.563 126.637 237.778C131.765 220.992 104.831 197.993 66.5424 186.452L66.6294 186.381Z" fill="url(#paint8_linear_4004_2)"/>
<path d="M1.96614 178.036C17.1435 172.512 42.0376 173.265 68.3851 181.294C94.7325 189.324 115.835 202.574 125.36 215.678L135.026 218.632L130.087 234.985L129.982 235.07L129.877 235.156L129.808 235.358C124.211 252.333 88.2623 256.451 49.1066 244.535C9.95083 232.618 -17.3446 209.296 -12.7931 191.999L-7.67194 175.118L1.96614 178.036Z" fill="url(#paint9_linear_4004_2)"/>
<path d="M73.1582 165.387C33.7444 154.104 -2.76725 158.895 -8.29026 176.237C-13.8133 193.578 13.7123 216.841 53.1647 228.207C92.617 239.574 129.09 234.699 134.613 217.358C140.136 200.016 112.61 176.753 73.1582 165.387Z" fill="url(#paint10_linear_4004_2)"/>
<path d="M9.14748 180.643C5.04 193.73 26.617 211.616 57.2768 220.625C87.9366 229.633 116.119 226.367 120.212 213.263C124.306 200.158 102.725 182.304 72.083 173.282C41.4409 164.259 13.2194 167.585 9.14748 180.643Z" fill="url(#paint11_radial_4004_2)"/>
<path d="M73.7032 180.825L63.2411 177.508L62.1614 181.335C59.1897 180.381 56.1666 179.62 53.1111 179.056C50.4893 178.544 47.8356 178.267 45.1816 178.229C43.1833 178.163 41.2016 178.452 39.3273 179.083C38.6491 179.279 38.033 179.638 37.5298 180.128C37.0266 180.618 36.6509 181.226 36.4338 181.902C36.1847 182.763 36.1684 183.682 36.3868 184.568C36.6051 185.453 37.0502 186.273 37.677 186.944C39.2084 188.722 41.0005 190.256 42.987 191.489C45.3606 193.006 47.833 194.353 50.3853 195.521L57.9619 198.966C60.2813 200.035 62.1952 200.991 63.701 201.865C65.2068 202.739 65.8909 203.512 65.7071 204.162C65.5234 204.813 64.9862 204.747 63.9756 204.8C62.3966 204.737 60.8284 204.426 59.328 203.878C56.6016 203.049 54.0132 201.779 51.6666 200.118C49.8664 199.026 48.5243 197.296 47.9146 195.283L34.4558 190.973L31.6656 200.762L45.1099 205.054L45.5651 203.474C48.4251 205.207 51.393 206.743 54.4477 208.073L53.2829 212.146L63.745 215.463L64.7561 211.692C67.8847 212.636 70.886 213.389 73.8063 213.971C76.4169 214.514 79.0617 214.828 81.7104 214.907C83.6929 214.991 85.6621 214.722 87.5277 214.113C88.2043 213.909 88.8171 213.543 89.3153 213.047C89.8135 212.55 90.1828 211.937 90.3923 211.258C90.6364 210.385 90.6459 209.455 90.4201 208.561C90.1943 207.667 89.7411 206.84 89.1059 206.163C87.5835 204.375 85.7898 202.84 83.7958 201.617C81.3794 200.066 78.854 198.701 76.2422 197.534L68.5302 193.993C66.1937 192.937 64.2193 191.942 62.6475 191.092C61.0758 190.243 60.3772 189.452 60.561 188.801C60.7447 188.15 61.4193 188.105 62.568 188.117C64.0307 188.254 65.4782 188.566 66.8797 189.046C68.2305 189.472 69.5464 190.014 70.8126 190.666C72.0014 191.248 73.1395 191.934 74.2132 192.717C75.1027 193.349 75.9087 194.095 76.6096 194.934C77.1553 195.536 77.4992 196.292 77.5899 197.09L91.2039 201.451L93.9092 191.908L80.3267 187.551L79.8516 189.176C79.0193 188.642 77.9684 188.048 76.719 187.35C75.4695 186.652 73.9817 185.941 72.3702 185.182L73.6083 180.814L73.7032 180.825Z" fill="url(#paint12_linear_4004_2)"/>
<path d="M74.7521 178.884L64.2996 175.998L63.083 179.826C60.1151 178.986 57.0879 178.338 54.0202 177.887C51.3919 177.486 48.7246 177.311 46.0477 177.365C44.0342 177.393 42.0261 177.755 40.1062 178.434C39.4142 178.655 38.7788 179.034 38.2524 179.54C37.726 180.046 37.3239 180.665 37.0793 181.344C36.7953 182.208 36.7441 183.123 36.9311 183.994C37.118 184.865 37.5364 185.663 38.1437 186.306C39.6223 188.015 41.3731 189.471 43.3317 190.621C45.6626 192.051 48.1083 193.297 50.6471 194.347L58.1468 197.498C60.0969 198.279 61.9998 199.163 63.8479 200.147C65.3488 200.975 65.9961 201.7 65.6968 202.426C65.3975 203.152 64.947 203.034 63.9071 203.139C62.3222 203.121 60.7586 202.866 59.2686 202.384C56.548 201.664 53.9834 200.5 51.6776 198.938C49.8872 197.951 48.5627 196.318 47.9659 194.363L34.5756 190.592L31.3756 200.405L44.7838 204.161L45.3029 202.575C48.1229 204.184 51.054 205.603 54.0772 206.823L52.7655 210.899L63.2003 213.799L64.3633 210.014C67.4856 210.834 70.4866 211.468 73.4122 211.936C76.0267 212.378 78.6845 212.589 81.355 212.568C83.3533 212.586 85.3529 212.244 87.2568 211.559C87.9481 211.335 88.582 210.952 89.106 210.443C89.63 209.934 90.029 209.313 90.2699 208.632C90.5461 207.752 90.5881 206.825 90.3916 205.942C90.1952 205.06 89.7671 204.253 89.1499 203.602C87.6794 201.885 85.9271 200.427 83.9618 199.287C81.579 197.84 79.0818 196.58 76.4916 195.516L68.855 192.306C66.5365 191.345 64.5633 190.446 63.0129 189.629C61.4624 188.813 60.7833 188.085 60.9933 187.432C61.2033 186.778 61.886 186.707 63.045 186.676C64.5163 186.757 65.9655 187.013 67.362 187.436C68.706 187.818 70.0129 188.307 71.2705 188.897C72.4466 189.434 73.5692 190.073 74.6255 190.807C75.4995 191.401 76.2848 192.111 76.9606 192.919C77.4847 193.498 77.8026 194.235 77.8687 195.024L91.4316 198.825L94.5366 189.259L80.9774 185.427L80.4504 187.076C79.6305 186.576 78.5784 186.009 77.3436 185.363C76.1088 184.716 74.6339 184.066 73.0359 183.373L74.4505 178.987L74.7521 178.884Z" fill="url(#paint13_linear_4004_2)"/>
<path d="M56.8411 218.629C26.5841 209.505 5.27513 191.276 9.37654 178.119C13.4779 164.962 41.2344 161.471 71.4913 170.596C101.748 179.72 122.99 197.83 118.837 211.173C114.685 224.516 86.9969 227.807 56.7541 218.7L56.8411 218.629ZM73.4381 164.173C35.1749 152.579 -0.105243 156.898 -5.22622 173.707C-10.3472 190.516 16.5474 213.496 54.8802 225.034C93.213 236.572 128.424 232.31 133.544 215.5C138.665 198.691 111.771 175.712 73.4381 164.173Z" fill="url(#paint14_linear_4004_2)"/>
<path style="mix-blend-mode:screen" d="M13.2048 205.392C17.4883 205.209 21.8241 204.984 26.1492 204.71C35.5509 210.846 45.8092 215.563 56.5942 218.709C86.9182 227.81 114.814 224.385 118.869 211.103C121.332 203.07 114.557 193.289 102.138 184.766C104.642 183.139 106.893 181.486 108.913 179.905C126.757 191.189 136.867 204.617 133.529 215.498C128.376 232.356 93.1135 236.733 54.6213 225.132C39.8159 220.879 25.8222 214.209 13.2048 205.392Z" fill="url(#paint15_linear_4004_2)"/>
<path d="M787.478 51.1929C792.725 73.3161 804.978 89.4524 814.792 87.2286C824.606 85.0048 828.158 65.2193 822.859 43.0897C817.561 20.9602 805.363 4.85855 795.613 7.09328C785.863 9.32801 782.246 29.1026 787.538 51.2157L787.478 51.1929Z" fill="url(#paint16_linear_4004_2)"/>
<path d="M802.002 85.5214C795.002 79.6443 788.331 67.2046 784.817 51.9755C781.303 36.7465 781.832 22.6039 785.562 14.1882L784.277 8.59845L793.691 6.35869L793.762 6.38604L793.834 6.41336L793.952 6.38948C803.857 4.29572 816.042 20.7741 821.273 43.4018C826.503 66.0295 822.788 86.0868 813.021 88.7861L803.297 91.087L802.002 85.5214Z" fill="url(#paint17_linear_4004_2)"/>
<path d="M775.546 54.1743C781.157 76.7242 793.82 93.2706 803.874 91.0387C813.929 88.8068 817.545 68.6754 811.964 46.0826C806.384 23.4899 793.69 6.98632 783.636 9.21824C773.581 11.4502 769.965 31.5816 775.546 54.1743Z" fill="url(#paint18_linear_4004_2)"/>
<path d="M801.029 81.0469C808.551 79.3373 811.207 63.7343 806.994 46.2191C802.78 28.7039 793.286 15.8804 785.759 17.602C778.231 19.3235 775.592 34.9192 779.794 52.4298C783.995 69.9405 793.53 82.7657 801.029 81.0469Z" fill="url(#paint19_radial_4004_2)"/>
<path d="M782.857 49.1328L784.261 55.229L786.477 54.6844C786.87 56.4192 787.374 58.1252 787.985 59.7916C788.495 61.2294 789.132 62.6168 789.887 63.9371C790.437 64.9418 791.158 65.8383 792.018 66.5855C792.314 66.8648 792.672 67.068 793.062 67.1782C793.452 67.2885 793.864 67.3026 794.263 67.2195C794.763 67.1002 795.225 66.8493 795.601 66.4923C795.977 66.1353 796.254 65.6849 796.405 65.1869C796.842 63.9304 797.081 62.6143 797.114 61.287C797.175 59.6888 797.123 58.0895 796.959 56.5014L796.46 51.7931C796.315 50.3475 796.232 49.134 796.226 48.145C796.221 47.1561 796.406 46.6009 796.783 46.5084C797.16 46.4158 797.284 46.6995 797.604 47.1833C798.034 47.98 798.337 48.8414 798.502 49.7362C798.886 51.3147 799.01 52.9495 798.869 54.5749C798.851 55.7708 798.384 56.92 797.561 57.7877L799.346 65.6419L805.023 64.263L803.233 56.4209L802.316 56.6408C802.342 54.7419 802.24 52.8449 802.009 50.9632L804.373 50.3914L802.969 44.2951L800.801 44.8579C800.357 43.0483 799.855 41.3555 799.293 39.7507C798.801 38.3095 798.186 36.9163 797.452 35.587C796.916 34.5853 796.208 33.6892 795.361 32.9401C795.062 32.6637 794.702 32.4642 794.31 32.3581C793.918 32.2521 793.506 32.2425 793.107 32.3304C792.603 32.4556 792.138 32.7127 791.759 33.0759C791.381 33.439 791.102 33.8954 790.952 34.3994C790.507 35.654 790.268 36.9713 790.242 38.2993C790.176 39.9284 790.235 41.5588 790.417 43.1759L790.907 47.9783C791.064 49.4284 791.146 50.6828 791.182 51.6976C791.219 52.7124 791.029 53.2797 790.653 53.3722C790.276 53.4648 790.056 53.1447 789.728 52.5744C789.369 51.814 789.102 51.012 788.931 50.1854C788.749 49.3988 788.635 48.5969 788.589 47.7887C788.531 47.0383 788.54 46.2835 788.616 45.5332C788.67 44.9164 788.806 44.3089 789.019 43.7266C789.158 43.288 789.433 42.9054 789.804 42.6359L787.999 34.6907L782.469 36.0423L784.267 43.9709L785.212 43.7479C785.19 44.3091 785.201 44.9948 785.219 45.8078C785.237 46.6208 785.317 47.5552 785.41 48.5639L782.879 49.1828L782.857 49.1328Z" fill="url(#paint20_linear_4004_2)"/>
<path d="M781.583 49.1699L783.2 55.1366L785.456 54.66C785.904 56.3602 786.466 58.0354 787.137 59.6751C787.705 61.0842 788.396 62.4489 789.204 63.7539C789.805 64.739 790.571 65.6277 791.469 66.3835C791.78 66.6627 792.154 66.8694 792.559 66.9867C792.964 67.104 793.388 67.1284 793.797 67.058C794.309 66.955 794.778 66.7231 795.156 66.3859C795.535 66.0486 795.809 65.618 795.951 65.1378C796.368 63.9278 796.581 62.6548 796.58 61.3655C796.61 59.8137 796.515 58.2572 796.296 56.7097L795.673 52.125C795.492 50.9435 795.376 49.7563 795.325 48.5682C795.298 47.5951 795.47 47.0719 795.918 47.0154C796.365 46.9589 796.438 47.2142 796.794 47.6976C797.247 48.4843 797.577 49.3271 797.772 50.1975C798.208 51.7419 798.379 53.3341 798.276 54.9104C798.308 56.071 797.883 57.1834 797.086 58.0277L799.121 65.692L804.928 64.5106L802.881 56.8415L801.942 57.0316C801.918 55.1883 801.768 53.3437 801.492 51.5096L803.899 51.0103L802.295 45.0483L800.075 45.5391C799.572 43.7686 799.011 42.1102 798.39 40.5357C797.846 39.1221 797.176 37.7518 796.386 36.4407C795.812 35.4502 795.059 34.5601 794.163 33.8137C793.85 33.5359 793.475 33.3308 793.069 33.2156C792.663 33.1003 792.239 33.0781 791.83 33.1509C791.312 33.2622 790.84 33.5022 790.459 33.8473C790.078 34.1923 789.802 34.6303 789.659 35.1178C789.235 36.326 789.022 37.6001 789.029 38.8901C789.006 40.472 789.109 42.0581 789.336 43.6348L789.97 48.3038C790.169 49.7174 790.298 50.9436 790.345 51.9379C790.392 52.9321 790.229 53.4717 789.843 53.5519C789.457 53.6321 789.223 53.3152 788.869 52.7523C788.48 52.004 788.184 51.2175 787.987 50.4095C787.785 49.6393 787.646 48.8574 787.572 48.0711C787.495 47.3402 787.485 46.6068 787.542 45.8794C787.582 45.2813 787.705 44.6942 787.909 44.1338C788.044 43.7124 788.318 43.3483 788.69 43.094L786.62 35.336L780.964 36.4946L783.016 44.2597L783.989 44.0558C783.98 44.6007 784.006 45.2791 784.045 46.0698C784.084 46.8606 784.192 47.7709 784.314 48.7538L781.722 49.2897L781.583 49.1699Z" fill="url(#paint21_linear_4004_2)"/>
<path d="M806.194 47.0068C810.267 64.4422 807.359 80.0843 799.762 81.8222C792.166 83.5602 782.624 70.9455 778.551 53.5101C774.478 36.0747 777.347 20.4994 785.049 18.7337C792.751 16.9679 802.176 29.6058 806.253 47.0294L806.194 47.0068ZM774.859 54.3855C779.982 76.4503 792.052 92.5181 801.724 90.2394C811.396 87.9607 815.053 68.2262 809.882 46.1433C804.712 24.0604 792.689 8.01073 783.017 10.2894C773.345 12.5681 769.688 32.3026 774.859 54.3855Z" fill="url(#paint22_linear_4004_2)"/>
<path style="mix-blend-mode:screen" d="M811.92 72.3851C810.625 70.3307 809.295 68.2628 807.943 66.2142C808.304 59.829 807.729 53.4298 806.236 47.2223C802.164 29.6955 792.636 16.9583 784.986 18.7753C780.357 19.8696 777.471 26.0089 776.789 34.5629C775.287 33.7983 773.844 33.1655 772.501 32.6258C773.009 20.6109 776.744 11.7844 783.015 10.3037C792.725 8.00005 804.792 24.0878 809.939 46.3493C812.02 54.852 812.69 63.6489 811.92 72.3851Z" fill="url(#paint23_linear_4004_2)"/>
<path d="M25.6098 91.359C28.4608 101.543 33.8286 110.841 41.2161 118.392C59.7951 136.833 84.5052 134.807 96.5351 113.875C103.758 101.278 104.756 84.7464 100.39 69.6351C97.5487 59.4541 92.1793 50.1616 84.7839 42.6257C66.2049 24.1614 41.4716 26.187 29.4649 47.1426C22.2423 59.716 21.2437 76.2477 25.6098 91.3823V91.359Z" fill="url(#paint24_linear_4004_2)"/>
<path d="M46.7471 30.221L38.4875 32.5489L38.7917 33.643C33.7243 36.8424 29.5417 41.2518 26.6245 46.47C19.2072 59.2737 18.2011 76.0815 22.6936 91.5624C25.5999 101.923 31.0981 111.382 38.6747 119.056C47.4724 127.762 57.6507 131.976 67.2674 131.883L67.595 133L75.5505 130.672C84.0669 128.058 91.1992 122.201 95.3923 114.376C102.786 101.596 103.792 84.7649 99.3232 69.284C96.4092 58.9214 90.903 49.4624 83.3187 41.7908C72.0173 30.6399 58.4697 26.8454 46.7471 30.1511V30.221Z" fill="url(#paint25_linear_4004_2)"/>
<path d="M14.7154 94.2377C17.6201 104.712 23.1152 114.275 30.6874 122.032C49.676 141.001 75.1189 138.93 87.396 117.325C94.7857 104.405 95.7912 87.389 91.3247 71.7384C88.3926 61.2722 82.8829 51.7204 75.306 43.9677C56.3174 24.9988 30.8745 27.0698 18.6207 48.6747C11.2077 61.6187 10.2021 78.6107 14.6921 94.2613L14.7154 94.2377Z" fill="url(#paint26_linear_4004_2)"/>
<g style="mix-blend-mode:multiply">
<path d="M23.0994 92.2532C25.3835 100.403 29.6752 107.844 35.5784 113.89C50.3944 128.674 70.2113 127.055 79.8393 110.276C85.6114 100.185 86.4059 86.9498 82.9006 74.7705C80.6418 66.6028 76.3469 59.1479 70.4216 53.1104C55.6056 38.3262 35.7887 39.9455 26.1607 56.7243C20.3886 66.8151 19.5941 80.0504 23.0994 92.2532Z" fill="#D0A662"/>
</g>
<path d="M82.2307 74.7133C85.7747 86.9393 84.9714 100.249 79.1355 110.355C69.4012 127.198 49.3656 128.823 34.3861 113.982C28.4129 107.918 24.073 100.447 21.7693 92.2631C18.2253 80.0371 19.0286 66.7274 24.8881 56.6215C34.5988 39.7548 54.6344 38.1293 69.6139 52.9701C75.6046 59.0308 79.9469 66.5143 82.2307 74.7133ZM13.7126 94.5952C16.6111 104.975 22.1069 114.451 29.6844 122.133C48.5859 140.979 74.0557 138.882 86.389 117.422C93.7842 104.607 94.8002 87.7402 90.3111 72.2397C87.3869 61.9135 81.8835 52.4955 74.3156 44.8667C55.4141 26.0212 29.9679 28.1177 17.611 49.578C10.2158 62.393 9.19982 79.2598 13.6889 94.7367L13.7126 94.5952Z" fill="url(#paint27_linear_4004_2)"/>
<path d="M46.1096 55.7121L42.7289 61.4964L44.5601 63.2778C43.8889 63.5509 43.2446 63.884 42.635 64.2728C41.799 64.76 41.0128 65.3255 40.2873 65.9618L35.4276 61.1957L34.1129 61.5656L34.2303 62.9078H34.3477L32 66.7715L36.2728 70.9363C35.274 72.6339 34.5306 74.4654 34.066 76.3735C33.5786 78.2625 33.3652 80.2099 33.4321 82.1579C33.4966 83.5351 33.7171 84.901 34.0894 86.23C34.2538 86.7159 34.4181 87.2018 34.6059 87.6877C35.3181 89.4925 36.4148 91.1259 37.8222 92.4773C39.2797 94.1203 41.2136 95.2831 43.3628 95.8089C44.991 96.1081 46.6711 95.964 48.2225 95.3923C49.7668 94.7816 51.1835 93.8953 52.4013 92.7778L55.9463 89.562C56.8487 88.7059 57.8586 87.967 58.9514 87.3637C59.3233 87.1518 59.7564 87.0686 60.1818 87.1273C60.6072 87.186 61.0005 87.3833 61.2991 87.6877C61.5882 87.9966 61.7976 88.3695 61.9094 88.7751C61.9909 89.0705 62.0459 89.3725 62.0738 89.6775C62.0973 90.7328 61.8032 91.7714 61.2286 92.6623C60.8319 93.4092 60.2798 94.0653 59.6082 94.5876C58.9367 95.1099 58.1609 95.4865 57.3315 95.6931C56.4355 95.8851 55.5087 95.8897 54.6109 95.7064C53.7131 95.523 52.8644 95.1559 52.1196 94.6289L50.8284 94.9991L51.251 96.1329L47.8468 101.94L56.5098 110.409L57.4723 113L58.787 112.63L63.0598 105.318L61.2756 103.583C63.0791 102.778 64.7243 101.666 66.1353 100.297L69.3516 103.444V105.133L70.6663 104.763L74 99.0482L69.8681 94.976C70.7769 93.234 71.5007 91.4042 72.0279 89.5156C72.5654 87.6818 72.8187 85.7784 72.7792 83.87C72.7594 82.4827 72.5461 81.1047 72.1453 79.7747C72.0045 79.3119 71.8636 78.8724 71.6758 78.4096C70.9492 76.6009 69.8363 74.9676 68.4125 73.6203C66.9208 71.9531 64.9595 70.7611 62.7781 70.1961C61.1271 69.8851 59.4211 70.0291 57.848 70.6124C56.2819 71.2529 54.8433 72.1617 53.5987 73.2964L49.9832 76.5817C49.0564 77.4527 48.0416 78.228 46.9547 78.8954C46.5975 79.1375 46.1638 79.2452 45.7329 79.1985C45.3019 79.1518 44.9024 78.9538 44.607 78.641C44.2644 78.3207 44.0203 77.9117 43.9027 77.4609C43.8021 77.1233 43.7624 76.771 43.7854 76.4199C43.8305 75.5134 44.0792 74.6282 44.5136 73.8279C44.948 73.0277 45.5573 72.3324 46.2974 71.7924C46.9281 71.3074 47.6564 70.9605 48.4338 70.7745C49.2067 70.6033 50.0085 70.6033 50.7814 70.7745C51.0542 70.8271 51.3214 70.9045 51.5797 71.0058L51.8614 72.209L53.1526 71.8387L57.4723 64.4578L46.8139 54L45.4992 54.37L46.1096 55.7121Z" fill="url(#paint28_linear_4004_2)"/>
<path d="M33.0836 86.5395C33.2241 87.0364 33.388 87.5256 33.5753 88.0069C34.2989 89.8294 35.3996 91.4802 36.806 92.852C38.269 94.4947 40.1936 95.6629 42.3311 96.2059C43.9492 96.4977 45.6167 96.3449 47.1538 95.7635C48.6984 95.1576 50.1127 94.2643 51.3211 93.1315L54.8562 89.8938C55.7608 89.0043 56.7665 88.2226 57.8528 87.5645C58.2352 87.3209 58.6919 87.2199 59.142 87.2796C59.592 87.3393 60.0062 87.5559 60.311 87.8907C60.6105 88.1935 60.821 88.572 60.9197 88.9853C61.0122 89.2802 61.0673 89.5854 61.0836 89.8938C61.1297 90.9589 60.8346 92.0112 60.2408 92.8986C59.8468 93.6498 59.2998 94.3109 58.6347 94.8403C57.9697 95.3696 57.2011 95.7555 56.3779 95.9731C55.483 96.1645 54.5575 96.166 53.6619 95.9773C52.7663 95.7887 51.9208 95.4143 51.1806 94.8784L46.9197 102.239L57.806 113L62.0669 105.64L60.311 103.893C62.1031 103.071 63.7418 101.953 65.1572 100.585L69.6756 105.081L73 99.3273L68.8796 95.2512C69.792 93.4921 70.514 91.6414 71.0334 89.7306C71.5694 87.8845 71.822 85.9685 71.7826 84.0473C71.7629 82.6508 71.5502 81.2635 71.1505 79.9245C71.1505 79.4587 70.8696 79.0162 70.7057 78.5504C69.9638 76.7387 68.8563 75.0975 67.4515 73.7287C65.9522 72.0528 63.9898 70.8538 61.8094 70.2814C60.1692 69.9639 58.4721 70.1176 56.9164 70.7241C55.3481 71.3457 53.9108 72.2543 52.6789 73.4028L49.0502 76.7102C48.1292 77.5809 47.1256 78.361 46.0535 79.0394C45.6973 79.2831 45.2648 79.3912 44.8351 79.3442C44.4053 79.2972 44.0069 79.0981 43.7124 78.7832C43.3871 78.4572 43.1461 78.0576 43.01 77.6186C42.9098 77.2707 42.8702 76.9084 42.893 76.5472C42.9562 75.5753 43.2533 74.6325 43.7592 73.7986C44.1627 73.0727 44.7223 72.4446 45.398 71.9587C46.3795 71.1918 47.5914 70.7747 48.8395 70.7747C50.0875 70.7747 51.2994 71.1918 52.2809 71.9587L56.5886 64.5282L45.9365 54L41.6288 61.4538L43.4548 63.247C42.79 63.5312 42.1481 63.8662 41.5351 64.2487C40.7011 64.7385 39.917 65.308 39.194 65.949L34.3244 61.3372L31 67.067L35.2375 71.2598C34.2512 72.9735 33.5105 74.8158 33.0368 76.7335C32.558 78.6361 32.3531 80.5967 32.4281 82.5566C32.4702 83.9453 32.6905 85.323 33.0836 86.6561V86.5395Z" fill="url(#paint29_linear_4004_2)"/>
<defs>
<linearGradient id="paint0_linear_4004_2" x1="221.561" y1="60.2405" x2="278.267" y2="62.5763" gradientUnits="userSpaceOnUse">
<stop offset="0.16" stop-color="#DE8200"/>
<stop offset="0.21" stop-color="#E18802"/>
<stop offset="0.27" stop-color="#E89809"/>
<stop offset="0.34" stop-color="#F3B314"/>
<stop offset="0.37" stop-color="#F8BD18"/>
<stop offset="0.43" stop-color="#F6AD1A"/>
<stop offset="0.47" stop-color="#F49F1C"/>
<stop offset="0.54" stop-color="#9F4000"/>
<stop offset="0.61" stop-color="#A04701"/>
<stop offset="0.71" stop-color="#FEC423"/>
<stop offset="1" stop-color="#B66300"/>
</linearGradient>
<linearGradient id="paint1_linear_4004_2" x1="276.328" y1="42.6261" x2="218.982" y2="81.5512" gradientUnits="userSpaceOnUse">
<stop stop-color="#EBAB00"/>
<stop offset="0.08" stop-color="#FFC524"/>
<stop offset="0.15" stop-color="#FFD759"/>
<stop offset="0.41" stop-color="#FFF4A5"/>
<stop offset="0.42" stop-color="#FFF09F"/>
<stop offset="0.44" stop-color="#FDE68F"/>
<stop offset="0.46" stop-color="#FBD674"/>
<stop offset="0.48" stop-color="#F8BF4F"/>
<stop offset="0.5" stop-color="#F4A120"/>
<stop offset="0.52" stop-color="#F28E00"/>
<stop offset="0.56" stop-color="#CA4E00"/>
<stop offset="0.61" stop-color="#A14D00"/>
<stop offset="0.65" stop-color="#EBA500"/>
<stop offset="0.66" stop-color="#F0B116"/>
<stop offset="0.67" stop-color="#F6C137"/>
<stop offset="0.68" stop-color="#FBCD4E"/>
<stop offset="0.69" stop-color="#FFD761"/>
<stop offset="0.73" stop-color="#FFD75F"/>
<stop offset="0.75" stop-color="#FFD558"/>
<stop offset="0.76" stop-color="#FFCF3C"/>
<stop offset="0.77" stop-color="#FFCB29"/>
<stop offset="0.78" stop-color="#FCC524"/>
<stop offset="0.8" stop-color="#F4B418"/>
<stop offset="0.82" stop-color="#E9A216"/>
<stop offset="0.83" stop-color="#F5C64B"/>
<stop offset="0.84" stop-color="#FCDB6B"/>
<stop offset="0.85" stop-color="#FEE173"/>
<stop offset="0.86" stop-color="#FEE275"/>
<stop offset="0.94" stop-color="#FEE47E"/>
<stop offset="1" stop-color="#FED94B"/>
</linearGradient>
<linearGradient id="paint2_linear_4004_2" x1="215.566" y1="52.2542" x2="273.269" y2="54.568" gradientUnits="userSpaceOnUse">
<stop offset="0.16" stop-color="#FFF8C7"/>
<stop offset="0.2" stop-color="#FFF6C1"/>
<stop offset="0.25" stop-color="#FFF0B1"/>
<stop offset="0.3" stop-color="#FEE696"/>
<stop offset="0.36" stop-color="#FED871"/>
<stop offset="0.42" stop-color="#FDC741"/>
<stop offset="0.47" stop-color="#FCB717"/>
<stop offset="0.56" stop-color="#B55D05"/>
<stop offset="0.58" stop-color="#9F4200"/>
<stop offset="0.63" stop-color="#A04701"/>
<stop offset="0.68" stop-color="#DB9414"/>
<stop offset="0.7" stop-color="#FEC220"/>
<stop offset="0.81" stop-color="#E89A04"/>
<stop offset="0.82" stop-color="#EBA412"/>
<stop offset="0.83" stop-color="#F2B92F"/>
<stop offset="0.85" stop-color="#F7C946"/>
<stop offset="0.86" stop-color="#FBD556"/>
<stop offset="0.88" stop-color="#FDDC60"/>
<stop offset="0.9" stop-color="#FEDE63"/>
<stop offset="1" stop-color="#FCC643"/>
</linearGradient>
<radialGradient id="paint3_radial_4004_2" cx="0" cy="0" r="1" gradientUnits="userSpaceOnUse" gradientTransform="translate(242.465 51.1887) rotate(145.383) scale(26.8353 11.4531)">
<stop stop-color="#FEDE6D"/>
<stop offset="1" stop-color="#F2AC1A"/>
</radialGradient>
<linearGradient id="paint4_linear_4004_2" x1="232.18" y1="61.3717" x2="255.653" y2="44.901" gradientUnits="userSpaceOnUse">
<stop offset="0.16" stop-color="#D27B00"/>
<stop offset="0.25" stop-color="#CD7500"/>
<stop offset="0.37" stop-color="#BF6500"/>
<stop offset="0.5" stop-color="#A84A00"/>
<stop offset="0.54" stop-color="#9F4000"/>
<stop offset="0.61" stop-color="#A04701"/>
<stop offset="0.71" stop-color="#E08600"/>
<stop offset="1" stop-color="#9F5800"/>
</linearGradient>
<linearGradient id="paint5_linear_4004_2" x1="235.877" y1="40.3289" x2="253.148" y2="64.8226" gradientUnits="userSpaceOnUse">
<stop stop-color="#FFE48C"/>
<stop offset="0.41" stop-color="#FFF4A5"/>
<stop offset="0.46" stop-color="#FFF29F"/>
<stop offset="0.53" stop-color="#FFED8F"/>
<stop offset="0.61" stop-color="#FFE474"/>
<stop offset="0.7" stop-color="#FFD84F"/>
<stop offset="0.77" stop-color="#FFCB29"/>
<stop offset="0.86" stop-color="#FEE275"/>
<stop offset="0.94" stop-color="#FEE47E"/>
</linearGradient>
<linearGradient id="paint6_linear_4004_2" x1="244.86" y1="29.4233" x2="242.935" y2="76.0717" gradientUnits="userSpaceOnUse">
<stop stop-color="#FFD651"/>
<stop offset="0.41" stop-color="#FFEC60"/>
<stop offset="0.48" stop-color="#FFE95A"/>
<stop offset="0.58" stop-color="#FFE14A"/>
<stop offset="0.69" stop-color="#FFD32F"/>
<stop offset="0.77" stop-color="#FFC718"/>
<stop offset="0.86" stop-color="#FED844"/>
<stop offset="0.94" stop-color="#FED949"/>
</linearGradient>
<linearGradient id="paint7_linear_4004_2" x1="268.232" y1="56.2383" x2="247.179" y2="54.1577" gradientUnits="userSpaceOnUse">
<stop stop-color="#B7B7B7"/>
<stop offset="1"/>
</linearGradient>
<linearGradient id="paint8_linear_4004_2" x1="20.7077" y1="167.539" x2="93.8407" y2="265.686" gradientUnits="userSpaceOnUse">
<stop offset="0.16" stop-color="#DE8200"/>
<stop offset="0.21" stop-color="#E18802"/>
<stop offset="0.27" stop-color="#E89809"/>
<stop offset="0.34" stop-color="#F3B314"/>
<stop offset="0.37" stop-color="#F8BD18"/>
<stop offset="0.43" stop-color="#F6AD1A"/>
<stop offset="0.47" stop-color="#F49F1C"/>
<stop offset="0.54" stop-color="#9F4000"/>
<stop offset="0.61" stop-color="#A04701"/>
<stop offset="0.71" stop-color="#FEC423"/>
<stop offset="1" stop-color="#B66300"/>
</linearGradient>
<linearGradient id="paint9_linear_4004_2" x1="124.62" y1="235.333" x2="-18.4896" y2="192.173" gradientUnits="userSpaceOnUse">
<stop stop-color="#EBAB00"/>
<stop offset="0.08" stop-color="#FFC524"/>
<stop offset="0.15" stop-color="#FFD759"/>
<stop offset="0.41" stop-color="#FFF4A5"/>
<stop offset="0.42" stop-color="#FFF09F"/>
<stop offset="0.44" stop-color="#FDE68F"/>
<stop offset="0.46" stop-color="#FBD674"/>
<stop offset="0.48" stop-color="#F8BF4F"/>
<stop offset="0.5" stop-color="#F4A120"/>
<stop offset="0.52" stop-color="#F28E00"/>
<stop offset="0.56" stop-color="#CA4E00"/>
<stop offset="0.61" stop-color="#A14D00"/>
<stop offset="0.65" stop-color="#EBA500"/>
<stop offset="0.66" stop-color="#F0B116"/>
<stop offset="0.67" stop-color="#F6C137"/>
<stop offset="0.68" stop-color="#FBCD4E"/>
<stop offset="0.69" stop-color="#FFD761"/>
<stop offset="0.73" stop-color="#FFD75F"/>
<stop offset="0.75" stop-color="#FFD558"/>
<stop offset="0.76" stop-color="#FFCF3C"/>
<stop offset="0.77" stop-color="#FFCB29"/>
<stop offset="0.78" stop-color="#FCC524"/>
<stop offset="0.8" stop-color="#F4B418"/>
<stop offset="0.82" stop-color="#E9A216"/>
<stop offset="0.83" stop-color="#F5C64B"/>
<stop offset="0.84" stop-color="#FCDB6B"/>
<stop offset="0.85" stop-color="#FEE173"/>
<stop offset="0.86" stop-color="#FEE275"/>
<stop offset="0.94" stop-color="#FEE47E"/>
<stop offset="1" stop-color="#FED94B"/>
</linearGradient>
<linearGradient id="paint10_linear_4004_2" x1="25.9382" y1="146.647" x2="100.462" y2="246.434" gradientUnits="userSpaceOnUse">
<stop offset="0.16" stop-color="#FFF8C7"/>
<stop offset="0.2" stop-color="#FFF6C1"/>
<stop offset="0.25" stop-color="#FFF0B1"/>
<stop offset="0.3" stop-color="#FEE696"/>
<stop offset="0.36" stop-color="#FED871"/>
<stop offset="0.42" stop-color="#FDC741"/>
<stop offset="0.47" stop-color="#FCB717"/>
<stop offset="0.56" stop-color="#B55D05"/>
<stop offset="0.58" stop-color="#9F4200"/>
<stop offset="0.63" stop-color="#A04701"/>
<stop offset="0.68" stop-color="#DB9414"/>
<stop offset="0.7" stop-color="#FEC220"/>
<stop offset="0.81" stop-color="#E89A04"/>
<stop offset="0.82" stop-color="#EBA412"/>
<stop offset="0.83" stop-color="#F2B92F"/>
<stop offset="0.85" stop-color="#F7C946"/>
<stop offset="0.86" stop-color="#FBD556"/>
<stop offset="0.88" stop-color="#FDDC60"/>
<stop offset="0.9" stop-color="#FEDE63"/>
<stop offset="1" stop-color="#FCC643"/>
</linearGradient>
<radialGradient id="paint11_radial_4004_2" cx="0" cy="0" r="1" gradientUnits="userSpaceOnUse" gradientTransform="translate(64.2701 190.252) rotate(-163.667) scale(57.8741 24.7003)">
<stop stop-color="#FEDE6D"/>
<stop offset="1" stop-color="#F2AC1A"/>
</radialGradient>
<linearGradient id="paint12_linear_4004_2" x1="33.2409" y1="186.86" x2="92.7203" y2="203.797" gradientUnits="userSpaceOnUse">
<stop offset="0.16" stop-color="#D27B00"/>
<stop offset="0.25" stop-color="#CD7500"/>
<stop offset="0.37" stop-color="#BF6500"/>
<stop offset="0.5" stop-color="#A84A00"/>
<stop offset="0.54" stop-color="#9F4000"/>
<stop offset="0.61" stop-color="#A04701"/>
<stop offset="0.71" stop-color="#E08600"/>
<stop offset="1" stop-color="#9F5800"/>
</linearGradient>
<linearGradient id="paint13_linear_4004_2" x1="73.5072" y1="164.462" x2="55.9504" y2="226.668" gradientUnits="userSpaceOnUse">
<stop stop-color="#FFE48C"/>
<stop offset="0.41" stop-color="#FFF4A5"/>
<stop offset="0.46" stop-color="#FFF29F"/>
<stop offset="0.53" stop-color="#FFED8F"/>
<stop offset="0.61" stop-color="#FFE474"/>
<stop offset="0.7" stop-color="#FFD84F"/>
<stop offset="0.77" stop-color="#FFCB29"/>
<stop offset="0.86" stop-color="#FEE275"/>
<stop offset="0.94" stop-color="#FEE47E"/>
</linearGradient>
<linearGradient id="paint14_linear_4004_2" x1="103.977" y1="164.689" x2="23.2332" y2="224.846" gradientUnits="userSpaceOnUse">
<stop stop-color="#FFD651"/>
<stop offset="0.41" stop-color="#FFEC60"/>
<stop offset="0.48" stop-color="#FFE95A"/>
<stop offset="0.58" stop-color="#FFE14A"/>
<stop offset="0.69" stop-color="#FFD32F"/>
<stop offset="0.77" stop-color="#FFC718"/>
<stop offset="0.86" stop-color="#FED844"/>
<stop offset="0.94" stop-color="#FED949"/>
</linearGradient>
<linearGradient id="paint15_linear_4004_2" x1="90.8219" y1="240.267" x2="65.7018" y2="202.18" gradientUnits="userSpaceOnUse">
<stop stop-color="#B7B7B7"/>
<stop offset="1"/>
</linearGradient>
<linearGradient id="paint16_linear_4004_2" x1="791.358" y1="79.1323" x2="818.752" y2="15.306" gradientUnits="userSpaceOnUse">
<stop offset="0.16" stop-color="#DE8200"/>
<stop offset="0.21" stop-color="#E18802"/>
<stop offset="0.27" stop-color="#E89809"/>
<stop offset="0.34" stop-color="#F3B314"/>
<stop offset="0.37" stop-color="#F8BD18"/>
<stop offset="0.43" stop-color="#F6AD1A"/>
<stop offset="0.47" stop-color="#F49F1C"/>
<stop offset="0.54" stop-color="#9F4000"/>
<stop offset="0.61" stop-color="#A04701"/>
<stop offset="0.71" stop-color="#FEC423"/>
<stop offset="1" stop-color="#B66300"/>
</linearGradient>
<linearGradient id="paint17_linear_4004_2" x1="795.408" y1="8.94446" x2="815.072" y2="91.4493" gradientUnits="userSpaceOnUse">
<stop stop-color="#EBAB00"/>
<stop offset="0.08" stop-color="#FFC524"/>
<stop offset="0.15" stop-color="#FFD759"/>
<stop offset="0.41" stop-color="#FFF4A5"/>
<stop offset="0.42" stop-color="#FFF09F"/>
<stop offset="0.44" stop-color="#FDE68F"/>
<stop offset="0.46" stop-color="#FBD674"/>
<stop offset="0.48" stop-color="#F8BF4F"/>
<stop offset="0.5" stop-color="#F4A120"/>
<stop offset="0.52" stop-color="#F28E00"/>
<stop offset="0.56" stop-color="#CA4E00"/>
<stop offset="0.61" stop-color="#A14D00"/>
<stop offset="0.65" stop-color="#EBA500"/>
<stop offset="0.66" stop-color="#F0B116"/>
<stop offset="0.67" stop-color="#F6C137"/>
<stop offset="0.68" stop-color="#FBCD4E"/>
<stop offset="0.69" stop-color="#FFD761"/>
<stop offset="0.73" stop-color="#FFD75F"/>
<stop offset="0.75" stop-color="#FFD558"/>
<stop offset="0.76" stop-color="#FFCF3C"/>
<stop offset="0.77" stop-color="#FFCB29"/>
<stop offset="0.78" stop-color="#FCC524"/>
<stop offset="0.8" stop-color="#F4B418"/>
<stop offset="0.82" stop-color="#E9A216"/>
<stop offset="0.83" stop-color="#F5C64B"/>
<stop offset="0.84" stop-color="#FCDB6B"/>
<stop offset="0.85" stop-color="#FEE173"/>
<stop offset="0.86" stop-color="#FEE275"/>
<stop offset="0.94" stop-color="#FEE47E"/>
<stop offset="1" stop-color="#FED94B"/>
</linearGradient>
<linearGradient id="paint18_linear_4004_2" x1="779.71" y1="82.6784" x2="807.55" y2="17.6962" gradientUnits="userSpaceOnUse">
<stop offset="0.16" stop-color="#FFF8C7"/>
<stop offset="0.2" stop-color="#FFF6C1"/>
<stop offset="0.25" stop-color="#FFF0B1"/>
<stop offset="0.3" stop-color="#FEE696"/>
<stop offset="0.36" stop-color="#FED871"/>
<stop offset="0.42" stop-color="#FDC741"/>
<stop offset="0.47" stop-color="#FCB717"/>
<stop offset="0.56" stop-color="#B55D05"/>
<stop offset="0.58" stop-color="#9F4200"/>
<stop offset="0.63" stop-color="#A04701"/>
<stop offset="0.68" stop-color="#DB9414"/>
<stop offset="0.7" stop-color="#FEC220"/>
<stop offset="0.81" stop-color="#E89A04"/>
<stop offset="0.82" stop-color="#EBA412"/>
<stop offset="0.83" stop-color="#F2B92F"/>
<stop offset="0.85" stop-color="#F7C946"/>
<stop offset="0.86" stop-color="#FBD556"/>
<stop offset="0.88" stop-color="#FDDC60"/>
<stop offset="0.9" stop-color="#FEDE63"/>
<stop offset="1" stop-color="#FCC643"/>
</linearGradient>
<radialGradient id="paint19_radial_4004_2" cx="0" cy="0" r="1" gradientUnits="userSpaceOnUse" gradientTransform="translate(790.246 51.4261) rotate(76.433) scale(32.626 13.8938)">
<stop stop-color="#FEDE6D"/>
<stop offset="1" stop-color="#F2AC1A"/>
</radialGradient>
<linearGradient id="paint20_linear_4004_2" x1="797.657" y1="67.3993" x2="789.324" y2="33.1357" gradientUnits="userSpaceOnUse">
<stop offset="0.16" stop-color="#D27B00"/>
<stop offset="0.25" stop-color="#CD7500"/>
<stop offset="0.37" stop-color="#BF6500"/>
<stop offset="0.5" stop-color="#A84A00"/>
<stop offset="0.54" stop-color="#9F4000"/>
<stop offset="0.61" stop-color="#A04701"/>
<stop offset="0.71" stop-color="#E08600"/>
<stop offset="1" stop-color="#9F5800"/>
</linearGradient>
<linearGradient id="paint21_linear_4004_2" x1="774.784" y1="53.8396" x2="810.628" y2="44.3491" gradientUnits="userSpaceOnUse">
<stop stop-color="#FFE48C"/>
<stop offset="0.41" stop-color="#FFF4A5"/>
<stop offset="0.46" stop-color="#FFF29F"/>
<stop offset="0.53" stop-color="#FFED8F"/>
<stop offset="0.61" stop-color="#FFE474"/>
<stop offset="0.7" stop-color="#FFD84F"/>
<stop offset="0.77" stop-color="#FFCB29"/>
<stop offset="0.86" stop-color="#FEE275"/>
<stop offset="0.94" stop-color="#FEE47E"/>
</linearGradient>
<linearGradient id="paint22_linear_4004_2" x1="766.493" y1="39.2648" x2="818.731" y2="61.692" gradientUnits="userSpaceOnUse">
<stop stop-color="#FFD651"/>
<stop offset="0.41" stop-color="#FFEC60"/>
<stop offset="0.48" stop-color="#FFE95A"/>
<stop offset="0.58" stop-color="#FFE14A"/>
<stop offset="0.69" stop-color="#FFD32F"/>
<stop offset="0.77" stop-color="#FFC718"/>
<stop offset="0.86" stop-color="#FED844"/>
<stop offset="0.94" stop-color="#FED949"/>
</linearGradient>
<linearGradient id="paint23_linear_4004_2" x1="807.169" y1="24.2005" x2="795.527" y2="47.4628" gradientUnits="userSpaceOnUse">
<stop stop-color="#B7B7B7"/>
<stop offset="1"/>
</linearGradient>
<linearGradient id="paint24_linear_4004_2" x1="22.4869" y1="78.6635" x2="103.075" y2="81.9762" gradientUnits="userSpaceOnUse">
<stop offset="0.16" stop-color="#FFF8C7"/>
<stop offset="0.2" stop-color="#FFF6C1"/>
<stop offset="0.25" stop-color="#FFF0B1"/>
<stop offset="0.3" stop-color="#FEE696"/>
<stop offset="0.36" stop-color="#FED871"/>
<stop offset="0.42" stop-color="#FDC741"/>
<stop offset="0.47" stop-color="#FCB717"/>
<stop offset="0.54" stop-color="#B55D05"/>
<stop offset="0.56" stop-color="#9F4200"/>
<stop offset="0.61" stop-color="#A04701"/>
<stop offset="0.65" stop-color="#DB9414"/>
<stop offset="0.66" stop-color="#FEC220"/>
<stop offset="0.81" stop-color="#E89A04"/>
<stop offset="0.82" stop-color="#EBA412"/>
<stop offset="0.83" stop-color="#F2B92F"/>
<stop offset="0.84" stop-color="#F7C946"/>
<stop offset="0.86" stop-color="#FBD556"/>
<stop offset="0.88" stop-color="#FDDC60"/>
<stop offset="0.9" stop-color="#FEDE63"/>
<stop offset="1" stop-color="#FCC643"/>
</linearGradient>
<linearGradient id="paint25_linear_4004_2" x1="82.5082" y1="140.136" x2="53.3537" y2="39.6671" gradientUnits="userSpaceOnUse">
<stop stop-color="#EBAB00"/>
<stop offset="0.08" stop-color="#FFC524"/>
<stop offset="0.15" stop-color="#FFD759"/>
<stop offset="0.41" stop-color="#FFF4A5"/>
<stop offset="0.42" stop-color="#FFF09F"/>
<stop offset="0.44" stop-color="#FDE68F"/>
<stop offset="0.46" stop-color="#FBD674"/>
<stop offset="0.48" stop-color="#F8BF4F"/>
<stop offset="0.5" stop-color="#F4A120"/>
<stop offset="0.52" stop-color="#F28E00"/>
<stop offset="0.56" stop-color="#CA4E00"/>
<stop offset="0.61" stop-color="#A14D00"/>
<stop offset="0.65" stop-color="#EBA500"/>
<stop offset="0.66" stop-color="#F0B116"/>
<stop offset="0.67" stop-color="#F6C137"/>
<stop offset="0.68" stop-color="#FBCD4E"/>
<stop offset="0.69" stop-color="#FFD761"/>
<stop offset="0.73" stop-color="#FFD75F"/>
<stop offset="0.75" stop-color="#FFD558"/>
<stop offset="0.76" stop-color="#FFCF3C"/>
<stop offset="0.77" stop-color="#FFCB29"/>
<stop offset="0.78" stop-color="#FCC524"/>
<stop offset="0.8" stop-color="#F4B418"/>
<stop offset="0.82" stop-color="#E9A216"/>
<stop offset="0.83" stop-color="#F5C64B"/>
<stop offset="0.84" stop-color="#FCDB6B"/>
<stop offset="0.85" stop-color="#FEE173"/>
<stop offset="0.86" stop-color="#FEE275"/>
<stop offset="0.94" stop-color="#FEE47E"/>
<stop offset="1" stop-color="#FED94B"/>
</linearGradient>
<linearGradient id="paint26_linear_4004_2" x1="11.498" y1="81.1539" x2="94.0723" y2="84.5354" gradientUnits="userSpaceOnUse">
<stop offset="0.16" stop-color="#DE8200"/>
<stop offset="0.21" stop-color="#E18802"/>
<stop offset="0.27" stop-color="#E89809"/>
<stop offset="0.34" stop-color="#F3B314"/>
<stop offset="0.37" stop-color="#F8BD18"/>
<stop offset="0.43" stop-color="#F6AD1A"/>
<stop offset="0.47" stop-color="#F49F1C"/>
<stop offset="0.54" stop-color="#9F4000"/>
<stop offset="0.61" stop-color="#A04701"/>
<stop offset="0.71" stop-color="#FEC423"/>
<stop offset="1" stop-color="#B66300"/>
</linearGradient>
<linearGradient id="paint27_linear_4004_2" x1="53.8191" y1="34.0105" x2="49.7938" y2="131.972" gradientUnits="userSpaceOnUse">
<stop stop-color="#EFA611"/>
<stop offset="0.41" stop-color="#FFC500"/>
<stop offset="0.53" stop-color="#FDBF00"/>
<stop offset="0.7" stop-color="#F6AF00"/>
<stop offset="0.88" stop-color="#EA9400"/>
<stop offset="1" stop-color="#E17F00"/>
</linearGradient>
<linearGradient id="paint28_linear_4004_2" x1="34.6106" y1="100.237" x2="107.239" y2="78.7433" gradientUnits="userSpaceOnUse">
<stop offset="0.16" stop-color="#CA7700"/>
<stop offset="0.26" stop-color="#C67100"/>
<stop offset="0.38" stop-color="#B96100"/>
<stop offset="0.51" stop-color="#A44600"/>
<stop offset="0.54" stop-color="#9F4000"/>
<stop offset="0.61" stop-color="#A04701"/>
<stop offset="0.71" stop-color="#B35C00"/>
<stop offset="1" stop-color="#9F5800"/>
</linearGradient>
<linearGradient id="paint29_linear_4004_2" x1="33.4235" y1="100.53" x2="105.959" y2="79.2659" gradientUnits="userSpaceOnUse">
<stop stop-color="#EFA611"/>
<stop offset="0.41" stop-color="#FFC500"/>
<stop offset="0.52" stop-color="#FDBF00"/>
<stop offset="0.66" stop-color="#F6AF00"/>
<stop offset="0.77" stop-color="#EF9E00"/>
<stop offset="1" stop-color="#C26B00"/>
</linearGradient>
</defs>
</svg>
