<svg width="63" height="44" viewBox="0 0 63 44" fill="none" xmlns="http://www.w3.org/2000/svg">
<path d="M23.315 11.532C26.9821 26.9954 35.5467 38.2742 42.4064 36.7198C49.2661 35.1655 51.7491 21.336 48.0454 5.86808C44.3417 -9.59981 35.8157 -20.8544 29.001 -19.2923C22.1862 -17.7303 19.6582 -3.90848 23.3567 11.5479L23.315 11.532Z" fill="url(#paint0_linear_2042_374)"/>
<path d="M33.4672 35.5265C28.5741 31.4186 23.9116 22.7237 21.4553 12.079C18.999 1.43433 19.3685 -8.45088 21.9761 -14.3332L21.0777 -18.2403L27.6576 -19.8058L27.7077 -19.7867L27.7578 -19.7676L27.8406 -19.7843C34.7639 -21.2478 43.2807 -9.7299 46.9367 6.0862C50.5927 21.9023 47.9959 35.9218 41.1691 37.8084L34.3721 39.4167L33.4672 35.5265Z" fill="url(#paint1_linear_2042_374)"/>
<path d="M14.9747 13.6159C18.8965 29.3776 27.7476 40.9431 34.7753 39.383C41.8031 37.823 44.3305 23.7517 40.4298 7.96008C36.5292 -7.83156 27.657 -19.3671 20.6292 -17.807C13.6015 -16.247 11.0741 -2.17572 14.9747 13.6159Z" fill="url(#paint2_linear_2042_374)"/>
<path d="M32.7864 32.399C38.0446 31.204 39.9008 20.298 36.9557 8.05543C34.0106 -4.18715 27.3746 -13.1504 22.1132 -11.9471C16.8518 -10.7438 15.0072 0.157166 17.9439 12.3966C20.8807 24.6359 27.5449 33.6004 32.7864 32.399Z" fill="url(#paint3_radial_2042_374)"/>
<path d="M20.0852 10.092L21.0664 14.3531L22.6153 13.9724C22.89 15.185 23.242 16.3774 23.6692 17.5422C24.026 18.5472 24.4709 19.5169 24.9987 20.4398C25.3831 21.142 25.8875 21.7686 26.4887 22.2909C26.6952 22.4861 26.9452 22.6282 27.218 22.7052C27.4908 22.7823 27.7786 22.7922 28.0575 22.7341C28.4071 22.6507 28.7297 22.4753 28.9927 22.2258C29.2556 21.9763 29.4495 21.6615 29.5546 21.3133C29.86 20.4351 30.0273 19.5152 30.0503 18.5875C30.0931 17.4703 30.0569 16.3525 29.942 15.2424L29.5934 11.9515C29.492 10.9411 29.4336 10.0929 29.43 9.40161C29.4264 8.71033 29.5554 8.32229 29.8188 8.25761C30.0822 8.19293 30.1688 8.39118 30.3931 8.72939C30.6933 9.28626 30.905 9.88834 31.0205 10.5137C31.2887 11.6171 31.3754 12.7598 31.2771 13.8959C31.2647 14.7318 30.9377 15.5351 30.3629 16.1415L31.6105 21.6314L35.5782 20.6675L34.3275 15.1862L33.6863 15.3399C33.7048 14.0126 33.6332 12.6867 33.4721 11.3714L35.1239 10.9717L34.1427 6.71064L32.6271 7.10402C32.3171 5.83917 31.9665 4.65595 31.5733 3.53423C31.2298 2.52688 30.7993 1.55304 30.2869 0.623919C29.9117 -0.0762678 29.4169 -0.702565 28.8251 -1.22618C28.6163 -1.41941 28.3645 -1.55886 28.0905 -1.63298C27.8166 -1.7071 27.5283 -1.71376 27.2497 -1.65237C26.897 -1.56486 26.5721 -1.38513 26.3077 -1.1313C26.0432 -0.877467 25.8485 -0.558438 25.743 -0.206172C25.4325 0.670723 25.265 1.5915 25.2472 2.5197C25.2011 3.65843 25.242 4.79804 25.3695 5.92834L25.7121 9.28505C25.8219 10.2986 25.8788 11.1754 25.9042 11.8847C25.9296 12.594 25.7974 12.9906 25.534 13.0552C25.2706 13.1199 25.1173 12.8962 24.8874 12.4976C24.6368 11.9661 24.45 11.4055 24.3309 10.8277C24.2036 10.2779 24.1234 9.71744 24.0915 9.15255C24.0512 8.62806 24.0576 8.10041 24.1106 7.57598C24.1486 7.14491 24.2431 6.72023 24.3918 6.31323C24.4893 6.00669 24.6818 5.73925 24.9405 5.55092L23.6791 -0.0025625L19.814 0.942183L21.0704 6.48401L21.7315 6.32813C21.7155 6.72042 21.7236 7.19966 21.736 7.76794C21.7483 8.33623 21.8047 8.98932 21.8699 9.69437L20.1006 10.127L20.0852 10.092Z" fill="url(#paint4_linear_2042_374)"/>
<path d="M19.1947 10.1179L20.3245 14.2885L21.9016 13.9554C22.215 15.1438 22.6075 16.3146 23.0766 17.4607C23.4733 18.4457 23.9566 19.3996 24.5213 20.3117C24.9417 21.0003 25.4767 21.6215 26.1042 22.1497C26.322 22.3449 26.5832 22.4894 26.8662 22.5714C27.1493 22.6533 27.4459 22.6704 27.7317 22.6212C28.0897 22.5492 28.4175 22.3871 28.6818 22.1514C28.9462 21.9157 29.1377 21.6147 29.237 21.279C29.5288 20.4333 29.6773 19.5435 29.677 18.6423C29.6981 17.5577 29.6318 16.4697 29.4786 15.3881L29.0428 12.1834C28.9163 11.3577 28.8352 10.5278 28.7997 9.6974C28.7812 9.01722 28.9008 8.65154 29.2138 8.61204C29.5269 8.57254 29.5779 8.75097 29.8264 9.08884C30.1434 9.63876 30.3739 10.2278 30.5103 10.8362C30.8151 11.9157 30.934 13.0286 30.8622 14.1304C30.8847 14.9416 30.588 15.7191 30.0309 16.3093L31.4528 21.6664L35.5119 20.8406L34.0814 15.4802L33.4249 15.613C33.4082 14.3246 33.303 13.0353 33.11 11.7534L34.7924 11.4043L33.6712 7.23704L32.1202 7.5801C31.768 6.3426 31.3761 5.18343 30.942 4.0829C30.562 3.09482 30.0934 2.13704 29.5414 1.22063C29.14 0.528268 28.6136 -0.09385 27.9876 -0.615593C27.7687 -0.809761 27.5065 -0.953077 27.223 -1.03365C26.9394 -1.11422 26.6424 -1.12971 26.3569 -1.07887C25.995 -1.00109 25.6645 -0.833284 25.3983 -0.592113C25.1321 -0.350941 24.9393 -0.0447976 24.8392 0.295926C24.5429 1.14044 24.3943 2.03098 24.3992 2.93266C24.383 4.03836 24.4547 5.147 24.6135 6.24909L25.0566 9.51258C25.196 10.5006 25.2861 11.3577 25.3189 12.0527C25.3517 12.7476 25.2376 13.1248 24.9679 13.1808C24.6982 13.2369 24.5344 13.0154 24.2873 12.622C24.0154 12.0989 23.8084 11.5491 23.6707 10.9844C23.5292 10.446 23.4322 9.8995 23.3807 9.34992C23.3271 8.83903 23.32 8.32644 23.3595 7.81796C23.3874 7.39994 23.4738 6.9896 23.6164 6.59784C23.7107 6.3033 23.9017 6.04881 24.1619 5.87109L22.7153 0.448468L18.7615 1.25832L20.1964 6.68584L20.8764 6.54332C20.8701 6.92421 20.8878 7.39839 20.9152 7.95109C20.9427 8.50379 21.0177 9.14009 21.1032 9.82711L19.2918 10.2017L19.1947 10.1179Z" fill="url(#paint5_linear_2042_374)"/>
<path d="M36.3968 8.60606C39.2436 20.7929 37.2111 31.7262 31.9012 32.941C26.5913 34.1558 19.922 25.3385 17.0752 13.1517C14.2284 0.964859 16.2336 -9.92183 21.6172 -11.156C27.0008 -12.3902 33.5881 -3.55669 36.4381 8.62182L36.3968 8.60606ZM14.4942 13.7635C18.0752 29.1862 26.5119 40.4171 33.2723 38.8243C40.0327 37.2316 42.5887 23.4378 38.9746 8.00251C35.3605 -7.43276 26.957 -18.651 20.1966 -17.0583C13.4362 -15.4656 10.8801 -1.67174 14.4942 13.7635Z" fill="url(#paint6_linear_2042_374)"/>
<path style="mix-blend-mode:screen" d="M40.399 26.3447C39.494 24.9087 38.5641 23.4633 37.6195 22.0314C37.872 17.5684 37.47 13.0955 36.4265 8.75664C33.5797 -3.49403 26.9201 -12.397 21.5734 -11.1269C18.3377 -10.3621 16.3205 -6.07091 15.8435 -0.0918932C14.7939 -0.626314 13.7851 -1.06863 12.8465 -1.4459C13.2019 -9.84389 15.8124 -16.0134 20.1957 -17.0483C26.9827 -18.6585 35.4172 -7.41368 39.0144 8.14645C40.4694 14.0896 40.9372 20.2384 40.399 26.3447Z" fill="url(#paint7_linear_2042_374)"/>
<defs>
<linearGradient id="paint0_linear_2042_374" x1="26.027" y1="31.0608" x2="45.1747" y2="-13.5519" gradientUnits="userSpaceOnUse">
<stop offset="0.16" stop-color="#DE8200"/>
<stop offset="0.21" stop-color="#E18802"/>
<stop offset="0.27" stop-color="#E89809"/>
<stop offset="0.34" stop-color="#F3B314"/>
<stop offset="0.37" stop-color="#F8BD18"/>
<stop offset="0.43" stop-color="#F6AD1A"/>
<stop offset="0.47" stop-color="#F49F1C"/>
<stop offset="0.54" stop-color="#9F4000"/>
<stop offset="0.61" stop-color="#A04701"/>
<stop offset="0.71" stop-color="#FEC423"/>
<stop offset="1" stop-color="#B66300"/>
</linearGradient>
<linearGradient id="paint1_linear_2042_374" x1="28.8577" y1="-17.9984" x2="42.6023" y2="39.67" gradientUnits="userSpaceOnUse">
<stop stop-color="#EBAB00"/>
<stop offset="0.08" stop-color="#FFC524"/>
<stop offset="0.15" stop-color="#FFD759"/>
<stop offset="0.41" stop-color="#FFF4A5"/>
<stop offset="0.42" stop-color="#FFF09F"/>
<stop offset="0.44" stop-color="#FDE68F"/>
<stop offset="0.46" stop-color="#FBD674"/>
<stop offset="0.48" stop-color="#F8BF4F"/>
<stop offset="0.5" stop-color="#F4A120"/>
<stop offset="0.52" stop-color="#F28E00"/>
<stop offset="0.56" stop-color="#CA4E00"/>
<stop offset="0.61" stop-color="#A14D00"/>
<stop offset="0.65" stop-color="#EBA500"/>
<stop offset="0.66" stop-color="#F0B116"/>
<stop offset="0.67" stop-color="#F6C137"/>
<stop offset="0.68" stop-color="#FBCD4E"/>
<stop offset="0.69" stop-color="#FFD761"/>
<stop offset="0.73" stop-color="#FFD75F"/>
<stop offset="0.75" stop-color="#FFD558"/>
<stop offset="0.76" stop-color="#FFCF3C"/>
<stop offset="0.77" stop-color="#FFCB29"/>
<stop offset="0.78" stop-color="#FCC524"/>
<stop offset="0.8" stop-color="#F4B418"/>
<stop offset="0.82" stop-color="#E9A216"/>
<stop offset="0.83" stop-color="#F5C64B"/>
<stop offset="0.84" stop-color="#FCDB6B"/>
<stop offset="0.85" stop-color="#FEE173"/>
<stop offset="0.86" stop-color="#FEE275"/>
<stop offset="0.94" stop-color="#FEE47E"/>
<stop offset="1" stop-color="#FED94B"/>
</linearGradient>
<linearGradient id="paint2_linear_2042_374" x1="17.8854" y1="33.5394" x2="37.3444" y2="-11.8812" gradientUnits="userSpaceOnUse">
<stop offset="0.16" stop-color="#FFF8C7"/>
<stop offset="0.2" stop-color="#FFF6C1"/>
<stop offset="0.25" stop-color="#FFF0B1"/>
<stop offset="0.3" stop-color="#FEE696"/>
<stop offset="0.36" stop-color="#FED871"/>
<stop offset="0.42" stop-color="#FDC741"/>
<stop offset="0.47" stop-color="#FCB717"/>
<stop offset="0.56" stop-color="#B55D05"/>
<stop offset="0.58" stop-color="#9F4200"/>
<stop offset="0.63" stop-color="#A04701"/>
<stop offset="0.68" stop-color="#DB9414"/>
<stop offset="0.7" stop-color="#FEC220"/>
<stop offset="0.81" stop-color="#E89A04"/>
<stop offset="0.82" stop-color="#EBA412"/>
<stop offset="0.83" stop-color="#F2B92F"/>
<stop offset="0.85" stop-color="#F7C946"/>
<stop offset="0.86" stop-color="#FBD556"/>
<stop offset="0.88" stop-color="#FDDC60"/>
<stop offset="0.9" stop-color="#FEDE63"/>
<stop offset="1" stop-color="#FCC643"/>
</linearGradient>
<radialGradient id="paint3_radial_2042_374" cx="0" cy="0" r="1" gradientUnits="userSpaceOnUse" gradientTransform="translate(25.2499 11.695) rotate(76.433) scale(22.8046 9.71136)">
<stop stop-color="#FEDE6D"/>
<stop offset="1" stop-color="#F2AC1A"/>
</radialGradient>
<linearGradient id="paint4_linear_2042_374" x1="30.43" y1="22.8597" x2="24.6054" y2="-1.08949" gradientUnits="userSpaceOnUse">
<stop offset="0.16" stop-color="#D27B00"/>
<stop offset="0.25" stop-color="#CD7500"/>
<stop offset="0.37" stop-color="#BF6500"/>
<stop offset="0.5" stop-color="#A84A00"/>
<stop offset="0.54" stop-color="#9F4000"/>
<stop offset="0.61" stop-color="#A04701"/>
<stop offset="0.71" stop-color="#E08600"/>
<stop offset="1" stop-color="#9F5800"/>
</linearGradient>
<linearGradient id="paint5_linear_2042_374" x1="14.4421" y1="13.3819" x2="39.4959" y2="6.74838" gradientUnits="userSpaceOnUse">
<stop stop-color="#FFE48C"/>
<stop offset="0.41" stop-color="#FFF4A5"/>
<stop offset="0.46" stop-color="#FFF29F"/>
<stop offset="0.53" stop-color="#FFED8F"/>
<stop offset="0.61" stop-color="#FFE474"/>
<stop offset="0.7" stop-color="#FFD84F"/>
<stop offset="0.77" stop-color="#FFCB29"/>
<stop offset="0.86" stop-color="#FEE275"/>
<stop offset="0.94" stop-color="#FEE47E"/>
</linearGradient>
<linearGradient id="paint6_linear_2042_374" x1="8.64693" y1="3.19465" x2="45.1594" y2="18.8705" gradientUnits="userSpaceOnUse">
<stop stop-color="#FFD651"/>
<stop offset="0.41" stop-color="#FFEC60"/>
<stop offset="0.48" stop-color="#FFE95A"/>
<stop offset="0.58" stop-color="#FFE14A"/>
<stop offset="0.69" stop-color="#FFD32F"/>
<stop offset="0.77" stop-color="#FFC718"/>
<stop offset="0.86" stop-color="#FED844"/>
<stop offset="0.94" stop-color="#FED949"/>
</linearGradient>
<linearGradient id="paint7_linear_2042_374" x1="37.0785" y1="-7.33488" x2="28.9408" y2="8.92474" gradientUnits="userSpaceOnUse">
<stop stop-color="#B7B7B7"/>
<stop offset="1"/>
</linearGradient>
</defs>
</svg>
