<svg width="66" height="100" viewBox="0 0 66 100" fill="none" xmlns="http://www.w3.org/2000/svg">
<path d="M52.9632 39.7275C33.1833 28.515 13.0214 26.5108 7.97162 35.2148C2.92182 43.9188 15.0006 59.9871 34.8207 71.1655C54.6408 82.3439 74.7398 84.365 79.7378 75.7007C84.7359 67.0363 72.7089 50.9284 52.9058 39.7557L52.9632 39.7275Z" fill="url(#paint0_linear_2010_110)"/>
<path d="M17.9265 27.0063C26.9969 25.877 40.6509 29.4557 54.2006 37.2454C67.7504 45.0352 77.7526 55.0475 81.3796 63.5084L86.3499 66.3708L81.5842 74.7925L81.5154 74.8264L81.4466 74.8602L81.3835 74.9633C76.1764 83.6455 55.8105 81.3583 35.6718 69.7909C15.5331 58.2234 3.36595 41.8509 8.03539 32.8578L12.9676 24.167L17.9265 27.0063Z" fill="url(#paint1_linear_2010_110)"/>
<path d="M58.8994 28.9562C38.559 17.7203 17.8176 15.7372 12.6101 24.6229C7.40263 33.5085 19.6917 49.8587 40.0429 61.1459C60.3941 72.4332 81.1247 74.3649 86.3322 65.4792C91.5396 56.5936 79.2506 40.2434 58.8994 28.9562Z" fill="url(#paint2_linear_2010_110)"/>
<path d="M21.8678 29.338C18.0006 36.0134 27.6252 48.5781 43.3259 57.4113C59.0265 66.2445 74.8834 68.0158 78.7449 61.329C82.6065 54.6422 72.9759 42.0946 57.2868 33.2557C41.5976 24.4169 25.712 22.674 21.8678 29.338Z" fill="url(#paint3_radial_2010_110)"/>
<path d="M57.6174 37.744L52.1955 34.6235L51.0864 36.6178C49.5479 35.725 47.9551 34.933 46.3182 34.2467C44.9174 33.6421 43.4677 33.1643 41.9864 32.8189C40.8761 32.5382 39.7281 32.4567 38.5952 32.5784C38.1895 32.6048 37.7973 32.7286 37.4508 32.9395C37.1044 33.1505 36.8138 33.4425 36.6031 33.7914C36.3502 34.2391 36.2198 34.748 36.2254 35.2666C36.231 35.7851 36.3722 36.2949 36.6348 36.744C37.258 37.9193 38.0594 38.9904 39.0094 39.9178C40.1387 41.0504 41.3458 42.1009 42.6213 43.0613L46.4103 45.9002C47.5683 46.7777 48.5142 47.5424 49.2423 48.2116C49.9704 48.8809 50.2516 49.394 50.0629 49.733C49.8743 50.0721 49.5821 49.97 49.0092 49.8757C48.1331 49.6482 47.2959 49.2839 46.5279 48.796C45.1102 48.0028 43.828 46.9811 42.7328 45.7718C41.8686 44.9449 41.345 43.8201 41.269 42.6271L34.2996 38.5894L31.4466 43.687L38.4102 47.713L38.8733 46.8913C40.2467 48.2029 41.7062 49.419 43.2417 50.5307L42.0525 52.6514L47.4743 55.7718L48.5377 53.8001C50.1654 54.7067 51.7471 55.4912 53.3058 56.1712C54.6962 56.792 56.1361 57.289 57.609 57.6565C58.7083 57.945 59.8466 58.0361 60.9717 57.9256C61.3775 57.8949 61.7688 57.7668 62.1133 57.5517C62.4577 57.3367 62.7454 57.041 62.9523 56.6893C63.204 56.2343 63.3319 55.7188 63.3233 55.1944C63.3148 54.6701 63.17 54.1553 62.9034 53.7017C62.2866 52.5224 61.4844 51.4504 60.5288 50.5279C59.38 49.3708 58.1457 48.3041 56.8367 47.3371L52.9846 44.4279C51.8152 43.5561 50.8406 42.7621 50.0724 42.0981C49.3042 41.4341 49.0172 40.9094 49.2059 40.5703C49.3946 40.2312 49.7784 40.2883 50.42 40.4355C51.2211 40.6903 51.9907 41.0403 52.7123 41.4781C53.4126 41.8799 54.0781 42.3416 54.7013 42.8582C55.2904 43.3266 55.8373 43.847 56.3354 44.4132C56.7503 44.8728 57.1033 45.3854 57.3852 45.9376C57.6116 46.3382 57.7045 46.8005 57.65 47.255L64.6995 51.34L67.4726 46.3687L60.4402 42.2897L59.9599 43.1344C59.5643 42.7357 59.054 42.2776 58.4463 41.7372C57.8385 41.1968 57.0991 40.62 56.2965 40.0019L57.5658 37.726L57.6174 37.744Z" fill="url(#paint4_linear_2010_110)"/>
<path d="M58.4572 36.7855L52.9854 33.909L51.799 35.8865C50.2482 35.0579 48.6387 34.3292 46.9805 33.7051C45.5618 33.1619 44.0913 32.7397 42.5854 32.4434C41.4542 32.2138 40.2821 32.1697 39.1175 32.3131C38.7009 32.3514 38.295 32.4845 37.9335 32.7014C37.572 32.9182 37.2652 33.2126 37.0386 33.5601C36.7655 34.0054 36.6163 34.5068 36.6059 35.0134C36.5956 35.5201 36.7246 36.0139 36.9799 36.4448C37.5822 37.5741 38.3703 38.5962 39.3153 39.4733C40.4317 40.5516 41.6367 41.5414 42.9196 42.434L46.7031 45.0975C47.692 45.7688 48.6408 46.4918 49.5458 47.2632C50.2768 47.906 50.5436 48.3875 50.2803 48.7541C50.0169 49.1207 49.7801 49.0005 49.184 48.932C48.299 48.7287 47.4571 48.3969 46.6865 47.9474C45.2582 47.216 43.9758 46.257 42.8908 45.1089C42.0186 44.3425 41.4924 43.2745 41.4163 42.1159L34.4163 38.3903L31.3296 43.4492L38.3415 47.169L38.8414 46.3515C40.2082 47.5885 41.6621 48.7336 43.1939 49.7795L41.9216 51.8829L47.3815 54.7652L48.5322 52.8054C50.1722 53.6412 51.7689 54.3591 53.3452 54.9755C54.7509 55.5393 56.2112 55.9806 57.7093 56.2943C58.8258 56.5477 59.9905 56.6016 61.1469 56.4535C61.5636 56.413 61.9691 56.2778 62.3296 56.059C62.6902 55.8402 62.9956 55.544 63.2203 55.1952C63.4912 54.7401 63.637 54.2303 63.6435 53.7164C63.6499 53.2025 63.5166 52.7024 63.257 52.2657C62.6602 51.1328 61.8714 50.1099 60.9215 49.2371C59.7782 48.1436 58.5463 47.1393 57.2364 46.2327L53.3841 43.5196C52.2126 42.7036 51.2265 41.9636 50.4661 41.3212C49.7058 40.6789 49.4215 40.1921 49.6253 39.8549C49.8291 39.5176 50.2208 39.5615 50.8738 39.6856C51.6869 39.9099 52.4647 40.2282 53.1907 40.6337C53.8929 41.0095 54.5602 41.4401 55.1864 41.9212C55.7742 42.3624 56.3184 42.854 56.8129 43.3906C57.2239 43.8269 57.5699 44.317 57.8417 44.8479C58.0587 45.2335 58.1394 45.6815 58.0724 46.1273L65.165 49.8909L68.1659 44.9578L61.0795 41.1772L60.5668 42.0288C60.1736 41.6514 59.6594 41.2082 59.0533 40.6988C58.4472 40.1894 57.7071 39.6486 56.9038 39.0692L58.2748 36.8057L58.4572 36.7855Z" fill="url(#paint5_linear_2010_110)"/>
<path d="M43.2927 56.2894C27.7462 47.4075 18.2645 34.6314 22.1613 27.8826C26.0581 21.1337 41.7944 22.7281 57.3408 31.61C72.8873 40.4919 82.3466 53.1939 78.3985 60.0389C74.4503 66.8839 58.7768 65.1878 43.2359 56.3173L43.2927 56.2894ZM59.2125 28.3087C39.5593 17.0457 19.5722 14.954 14.6593 23.5913C9.74636 32.2285 21.7167 48.3386 41.4154 59.5792C61.114 70.8198 81.0557 72.9339 85.9686 64.2967C90.8815 55.6594 78.9112 39.5494 59.2125 28.3087Z" fill="url(#paint6_linear_2010_110)"/>
<path style="mix-blend-mode:screen" d="M20.8019 43.2128C23.1883 43.6623 25.6088 44.095 28.0295 44.499C32.4619 49.1093 37.5419 53.043 43.1061 56.1738C58.7194 65.118 74.5361 66.8058 78.4108 59.9646C80.7596 55.8282 78.2255 49.5355 72.4226 43.2138C74.0048 42.6339 75.4507 42.0071 76.76 41.3906C85.217 49.9401 89.1423 58.6836 85.9592 64.286C81.0387 72.9682 61.039 70.8606 41.2259 59.4807C33.5794 55.2192 26.6786 49.7226 20.8019 43.2128Z" fill="url(#paint7_linear_2010_110)"/>
<defs>
<linearGradient id="paint0_linear_2010_110" x1="29.8518" y1="23.5555" x2="57.9725" y2="87.0651" gradientUnits="userSpaceOnUse">
<stop offset="0.16" stop-color="#DE8200"/>
<stop offset="0.21" stop-color="#E18802"/>
<stop offset="0.27" stop-color="#E89809"/>
<stop offset="0.34" stop-color="#F3B314"/>
<stop offset="0.37" stop-color="#F8BD18"/>
<stop offset="0.43" stop-color="#F6AD1A"/>
<stop offset="0.47" stop-color="#F49F1C"/>
<stop offset="0.54" stop-color="#9F4000"/>
<stop offset="0.61" stop-color="#A04701"/>
<stop offset="0.71" stop-color="#FEC423"/>
<stop offset="1" stop-color="#B66300"/>
</linearGradient>
<linearGradient id="paint1_linear_2010_110" x1="78.5212" y1="74.2906" x2="4.68856" y2="32.5476" gradientUnits="userSpaceOnUse">
<stop stop-color="#EBAB00"/>
<stop offset="0.08" stop-color="#FFC524"/>
<stop offset="0.15" stop-color="#FFD759"/>
<stop offset="0.41" stop-color="#FFF4A5"/>
<stop offset="0.42" stop-color="#FFF09F"/>
<stop offset="0.44" stop-color="#FDE68F"/>
<stop offset="0.46" stop-color="#FBD674"/>
<stop offset="0.48" stop-color="#F8BF4F"/>
<stop offset="0.5" stop-color="#F4A120"/>
<stop offset="0.52" stop-color="#F28E00"/>
<stop offset="0.56" stop-color="#CA4E00"/>
<stop offset="0.61" stop-color="#A14D00"/>
<stop offset="0.65" stop-color="#EBA500"/>
<stop offset="0.66" stop-color="#F0B116"/>
<stop offset="0.67" stop-color="#F6C137"/>
<stop offset="0.68" stop-color="#FBCD4E"/>
<stop offset="0.69" stop-color="#FFD761"/>
<stop offset="0.73" stop-color="#FFD75F"/>
<stop offset="0.75" stop-color="#FFD558"/>
<stop offset="0.76" stop-color="#FFCF3C"/>
<stop offset="0.77" stop-color="#FFCB29"/>
<stop offset="0.78" stop-color="#FCC524"/>
<stop offset="0.8" stop-color="#F4B418"/>
<stop offset="0.82" stop-color="#E9A216"/>
<stop offset="0.83" stop-color="#F5C64B"/>
<stop offset="0.84" stop-color="#FCDB6B"/>
<stop offset="0.85" stop-color="#FEE173"/>
<stop offset="0.86" stop-color="#FEE275"/>
<stop offset="0.94" stop-color="#FEE47E"/>
<stop offset="1" stop-color="#FED94B"/>
</linearGradient>
<linearGradient id="paint2_linear_2010_110" x1="35.1809" y1="12.6081" x2="63.8453" y2="77.2307" gradientUnits="userSpaceOnUse">
<stop offset="0.16" stop-color="#FFF8C7"/>
<stop offset="0.2" stop-color="#FFF6C1"/>
<stop offset="0.25" stop-color="#FFF0B1"/>
<stop offset="0.3" stop-color="#FEE696"/>
<stop offset="0.36" stop-color="#FED871"/>
<stop offset="0.42" stop-color="#FDC741"/>
<stop offset="0.47" stop-color="#FCB717"/>
<stop offset="0.56" stop-color="#B55D05"/>
<stop offset="0.58" stop-color="#9F4200"/>
<stop offset="0.63" stop-color="#A04701"/>
<stop offset="0.68" stop-color="#DB9414"/>
<stop offset="0.7" stop-color="#FEC220"/>
<stop offset="0.81" stop-color="#E89A04"/>
<stop offset="0.82" stop-color="#EBA412"/>
<stop offset="0.83" stop-color="#F2B92F"/>
<stop offset="0.85" stop-color="#F7C946"/>
<stop offset="0.86" stop-color="#FBD556"/>
<stop offset="0.88" stop-color="#FDDC60"/>
<stop offset="0.9" stop-color="#FEDE63"/>
<stop offset="1" stop-color="#FCC643"/>
</linearGradient>
<radialGradient id="paint3_radial_2010_110" cx="0" cy="0" r="1" gradientUnits="userSpaceOnUse" gradientTransform="translate(50.9085 41.5972) rotate(-150.679) scale(32.626 13.8938)">
<stop stop-color="#FEDE6D"/>
<stop offset="1" stop-color="#F2AC1A"/>
</radialGradient>
<linearGradient id="paint4_linear_2010_110" x1="34.1614" y1="36.156" x2="64.937" y2="53.3693" gradientUnits="userSpaceOnUse">
<stop offset="0.16" stop-color="#D27B00"/>
<stop offset="0.25" stop-color="#CD7500"/>
<stop offset="0.37" stop-color="#BF6500"/>
<stop offset="0.5" stop-color="#A84A00"/>
<stop offset="0.54" stop-color="#9F4000"/>
<stop offset="0.61" stop-color="#A04701"/>
<stop offset="0.71" stop-color="#E08600"/>
<stop offset="1" stop-color="#9F5800"/>
</linearGradient>
<linearGradient id="paint5_linear_2010_110" x1="59.6633" y1="28.6255" x2="42.2224" y2="61.3466" gradientUnits="userSpaceOnUse">
<stop stop-color="#FFE48C"/>
<stop offset="0.41" stop-color="#FFF4A5"/>
<stop offset="0.46" stop-color="#FFF29F"/>
<stop offset="0.53" stop-color="#FFED8F"/>
<stop offset="0.61" stop-color="#FFE474"/>
<stop offset="0.7" stop-color="#FFD84F"/>
<stop offset="0.77" stop-color="#FFCB29"/>
<stop offset="0.86" stop-color="#FEE275"/>
<stop offset="0.94" stop-color="#FEE47E"/>
</linearGradient>
<linearGradient id="paint6_linear_2010_110" x1="75.9845" y1="32.4701" x2="24.0012" y2="55.4803" gradientUnits="userSpaceOnUse">
<stop stop-color="#FFD651"/>
<stop offset="0.41" stop-color="#FFEC60"/>
<stop offset="0.48" stop-color="#FFE95A"/>
<stop offset="0.58" stop-color="#FFE14A"/>
<stop offset="0.69" stop-color="#FFD32F"/>
<stop offset="0.77" stop-color="#FFC718"/>
<stop offset="0.86" stop-color="#FED844"/>
<stop offset="0.94" stop-color="#FED949"/>
</linearGradient>
<linearGradient id="paint7_linear_2010_110" x1="59.3388" y1="72.5253" x2="50.2186" y2="48.1634" gradientUnits="userSpaceOnUse">
<stop stop-color="#B7B7B7"/>
<stop offset="1"/>
</linearGradient>
</defs>
</svg>
