<svg width="36" height="31" viewBox="0 0 36 31" fill="none" xmlns="http://www.w3.org/2000/svg">
<path d="M15.0874 10.6258C6.4609 16.4941 1.54727 24.387 4.10609 28.2308C6.66491 32.0745 15.7286 30.3609 24.3493 24.4691C32.97 18.5774 37.8778 10.7138 35.3248 6.89943C32.7718 3.08503 23.7023 4.76925 15.0874 10.6552V10.6258Z" fill="url(#paint0_linear_2042_356)"/>
<path d="M2.74562 22.4684C4.12013 18.5057 8.36216 13.611 14.3164 9.61315C20.2706 5.6153 26.4204 3.52844 30.6387 3.75119L32.8249 2.28571L35.3251 5.95526V5.99047V6.02564L35.3547 6.07251C37.8727 9.97657 32.8012 17.8961 23.9558 23.8401C15.1103 29.7841 5.90345 31.4724 3.1485 27.7266L0.571289 23.9339L2.74562 22.4684Z" fill="url(#paint1_linear_2042_356)"/>
<path d="M11.8572 5.99801C3.10738 12.0923 -1.91505 20.228 0.686576 24.1735C3.2882 28.119 12.5106 26.3761 21.2838 20.2877C30.057 14.1994 35.0561 6.05769 32.4544 2.11221C29.8528 -1.83328 20.6304 -0.0903363 11.8572 5.99801Z" fill="url(#paint2_linear_2042_356)"/>
<path d="M4.5048 21.319C6.46839 24.2646 13.5922 22.8507 20.4122 18.1791C27.2321 13.5074 31.1768 7.33941 29.2074 4.39385C27.238 1.4483 20.12 2.86806 13.3 7.53382C6.48008 12.1996 2.54122 18.3852 4.5048 21.319Z" fill="url(#paint3_radial_2042_356)"/>
<path d="M15.2144 8.30774L12.8304 9.90678L13.4264 10.7678C12.7469 11.22 12.0979 11.715 11.4834 12.2497C10.9505 12.7037 10.4598 13.2035 10.0173 13.7432C9.67654 14.1434 9.41022 14.5994 9.23057 15.0904C9.15916 15.2627 9.13058 15.4493 9.14716 15.6347C9.16374 15.8201 9.22502 15.9989 9.32593 16.1564C9.45888 16.3513 9.64195 16.5082 9.85654 16.611C10.0711 16.7139 10.3096 16.7591 10.5477 16.7421C11.1579 16.7239 11.7613 16.6112 12.3357 16.4083C13.031 16.1731 13.7081 15.8892 14.3621 15.559L16.2991 14.5749C16.8951 14.2762 17.4017 14.0419 17.8249 13.8779C18.248 13.7139 18.5162 13.7022 18.6175 13.8487C18.7189 13.9951 18.6175 14.0946 18.4626 14.3114C18.1913 14.6258 17.8715 14.8966 17.5149 15.1138C16.9009 15.5365 16.2204 15.8571 15.5005 16.0627C14.9849 16.2507 14.4156 16.2382 13.9092 16.0276L10.8338 18.0776L12.3536 20.2857L15.423 18.2357L15.1786 17.8784C15.9971 17.5791 16.7936 17.2249 17.5626 16.8183L18.1944 17.7378L20.5784 16.1388L19.9824 15.3012C20.6856 14.8151 21.3293 14.3231 21.9253 13.8194C22.4628 13.3729 22.9594 12.881 23.4093 12.3492C23.751 11.9552 24.0194 11.5052 24.202 11.0196C24.2717 10.8464 24.2983 10.6593 24.2796 10.4739C24.261 10.2885 24.1976 10.1101 24.0948 9.95361C23.9585 9.75773 23.7723 9.60054 23.5547 9.49773C23.3371 9.39493 23.0958 9.35013 22.8551 9.36789C22.2445 9.38266 21.6406 9.49544 21.0671 9.70175C20.3578 9.93998 19.6684 10.2317 19.0049 10.5745L17.0262 11.5702C16.4302 11.8748 15.9058 12.1149 15.4766 12.2965C15.0475 12.4781 14.7734 12.4898 14.672 12.3434C14.5707 12.1969 14.672 12.0505 14.8628 11.8162C15.1301 11.5381 15.4302 11.2924 15.7568 11.0841C16.0642 10.8773 16.3892 10.697 16.7282 10.5452C17.0405 10.3977 17.3656 10.2781 17.6997 10.1879C17.973 10.1103 18.2556 10.0689 18.5401 10.0649C18.7509 10.053 18.96 10.1084 19.1361 10.2231L22.2472 8.14962L20.7631 6L17.658 8.06761L17.9083 8.43661C17.6639 8.51862 17.3719 8.63577 17.0262 8.77634C16.6805 8.91691 16.2931 9.10433 15.8759 9.30933L15.1965 8.32533L15.2144 8.30774Z" fill="url(#paint4_linear_2042_356)"/>
<path d="M14.9901 7.76771L12.6964 9.43677L13.2699 10.3261C12.6143 10.7965 11.988 11.3113 11.3948 11.8673C10.8835 12.3411 10.4115 12.8608 9.98416 13.4206C9.66024 13.8396 9.40442 14.3132 9.22725 14.8217C9.15854 15.0009 9.13103 15.195 9.14698 15.3878C9.16294 15.5805 9.2219 15.7665 9.31899 15.9303C9.4469 16.133 9.62304 16.2961 9.8295 16.4031C10.036 16.5101 10.2654 16.5571 10.4945 16.5394C11.0815 16.5205 11.6621 16.4033 12.2148 16.1922C12.885 15.9514 13.5368 15.6561 14.1644 15.309L16.028 14.2917C16.5049 14.0208 16.9949 13.7768 17.496 13.5607C17.9088 13.3902 18.1611 13.378 18.2586 13.5607C18.3561 13.7435 18.2586 13.8165 18.1095 14.048C17.8464 14.3711 17.5391 14.6504 17.1978 14.8765C16.607 15.3161 15.9522 15.6495 15.2596 15.8633C14.7673 16.0669 14.2209 16.0669 13.7286 15.8633L10.7755 17.9892L12.232 20.2857L15.1851 18.1537L14.95 17.7821C15.7363 17.4703 16.5025 17.1041 17.2437 16.6856L17.8515 17.6359L20.1452 15.9729L19.5718 15.1018C20.2484 14.5962 20.8677 14.0846 21.4411 13.5607C21.9582 13.0964 22.436 12.5848 22.8689 12.0317C23.1997 11.6235 23.458 11.155 23.6316 10.649C23.6994 10.4692 23.726 10.2749 23.709 10.0821C23.6921 9.88932 23.6321 9.70358 23.5341 9.54031C23.4017 9.33656 23.2214 9.17313 23.0112 9.06627C22.8009 8.95941 22.5681 8.91284 22.3356 8.93116C21.7483 8.94706 21.1673 9.06434 20.6154 9.27838C19.9334 9.52725 19.2702 9.83065 18.6313 10.186L16.7333 11.2216C16.1599 11.5383 15.6553 11.7942 15.2367 11.9769C14.8181 12.1596 14.5601 12.1779 14.4626 12.0256C14.3651 11.8734 14.4626 11.7211 14.6461 11.4774C14.9033 11.1882 15.192 10.9326 15.5062 10.716C15.8033 10.5031 16.1158 10.3158 16.4409 10.1556C16.7417 10.0031 17.0544 9.87875 17.3755 9.78399C17.6385 9.70329 17.9104 9.66026 18.1841 9.65605C18.3868 9.64493 18.5876 9.70253 18.7575 9.82053L21.745 7.66416L20.3229 5.42856L17.3297 7.57887L17.5762 7.96264C17.3411 8.04792 17.0544 8.16972 16.7218 8.31592C16.3893 8.46211 16.0165 8.65706 15.6151 8.87026L14.9615 7.8469L14.9901 7.76771Z" fill="url(#paint5_linear_2042_356)"/>
<path d="M19.9437 17.9651C13.1349 22.5634 5.95309 23.8756 3.96527 20.9029C1.97744 17.9303 5.82485 11.776 12.6336 7.17772C19.4423 2.57942 26.5892 1.26147 28.6061 4.27475C30.6231 7.28804 26.7466 13.3959 19.9437 17.9942V17.9651ZM11.6543 5.73783C3.03257 11.5438 -1.88162 19.347 0.677485 23.1208C3.23659 26.8947 12.2955 25.2342 20.9172 19.405C29.5389 13.5759 34.453 5.79591 31.8939 2.02204C29.3348 -1.75182 20.2759 -0.0913385 11.6543 5.73783Z" fill="url(#paint6_linear_2042_356)"/>
<path style="mix-blend-mode:screen" d="M10 24.5714C10.669 23.6802 11.3379 22.7716 11.9951 21.8571C14.7917 20.9675 17.4411 19.6741 19.8582 18.0186C26.7062 13.4054 30.6084 7.23698 28.578 4.25471C27.3516 2.44904 24.2475 2.21606 20.4685 3.32277C20.5506 2.5539 20.5858 1.83162 20.5976 1.1676C25.8318 -0.579821 30.227 -0.422534 31.8876 2.02386C34.4636 5.80994 29.5404 13.6151 20.8382 19.4632C17.5334 21.7465 13.8714 23.4725 10 24.5714Z" fill="url(#paint7_linear_2042_356)"/>
<defs>
<linearGradient id="paint0_linear_2042_356" x1="3.7438" y1="16.8597" x2="35.5891" y2="18.1633" gradientUnits="userSpaceOnUse">
<stop offset="0.16" stop-color="#DE8200"/>
<stop offset="0.21" stop-color="#E18802"/>
<stop offset="0.27" stop-color="#E89809"/>
<stop offset="0.34" stop-color="#F3B314"/>
<stop offset="0.37" stop-color="#F8BD18"/>
<stop offset="0.43" stop-color="#F6AD1A"/>
<stop offset="0.47" stop-color="#F49F1C"/>
<stop offset="0.54" stop-color="#9F4000"/>
<stop offset="0.61" stop-color="#A04701"/>
<stop offset="0.71" stop-color="#FEC423"/>
<stop offset="1" stop-color="#B66300"/>
</linearGradient>
<linearGradient id="paint1_linear_2042_356" x1="34.4974" y1="7.11431" x2="2.34212" y2="29.0413" gradientUnits="userSpaceOnUse">
<stop stop-color="#EBAB00"/>
<stop offset="0.08" stop-color="#FFC524"/>
<stop offset="0.15" stop-color="#FFD759"/>
<stop offset="0.41" stop-color="#FFF4A5"/>
<stop offset="0.42" stop-color="#FFF09F"/>
<stop offset="0.44" stop-color="#FDE68F"/>
<stop offset="0.46" stop-color="#FBD674"/>
<stop offset="0.48" stop-color="#F8BF4F"/>
<stop offset="0.5" stop-color="#F4A120"/>
<stop offset="0.52" stop-color="#F28E00"/>
<stop offset="0.56" stop-color="#CA4E00"/>
<stop offset="0.61" stop-color="#A14D00"/>
<stop offset="0.65" stop-color="#EBA500"/>
<stop offset="0.66" stop-color="#F0B116"/>
<stop offset="0.67" stop-color="#F6C137"/>
<stop offset="0.68" stop-color="#FBCD4E"/>
<stop offset="0.69" stop-color="#FFD761"/>
<stop offset="0.73" stop-color="#FFD75F"/>
<stop offset="0.75" stop-color="#FFD558"/>
<stop offset="0.76" stop-color="#FFCF3C"/>
<stop offset="0.77" stop-color="#FFCB29"/>
<stop offset="0.78" stop-color="#FCC524"/>
<stop offset="0.8" stop-color="#F4B418"/>
<stop offset="0.82" stop-color="#E9A216"/>
<stop offset="0.83" stop-color="#F5C64B"/>
<stop offset="0.84" stop-color="#FCDB6B"/>
<stop offset="0.85" stop-color="#FEE173"/>
<stop offset="0.86" stop-color="#FEE275"/>
<stop offset="0.94" stop-color="#FEE47E"/>
<stop offset="1" stop-color="#FED94B"/>
</linearGradient>
<linearGradient id="paint2_linear_2042_356" x1="0.318008" y1="12.4461" x2="32.7317" y2="13.7516" gradientUnits="userSpaceOnUse">
<stop offset="0.16" stop-color="#FFF8C7"/>
<stop offset="0.2" stop-color="#FFF6C1"/>
<stop offset="0.25" stop-color="#FFF0B1"/>
<stop offset="0.3" stop-color="#FEE696"/>
<stop offset="0.36" stop-color="#FED871"/>
<stop offset="0.42" stop-color="#FDC741"/>
<stop offset="0.47" stop-color="#FCB717"/>
<stop offset="0.56" stop-color="#B55D05"/>
<stop offset="0.58" stop-color="#9F4200"/>
<stop offset="0.63" stop-color="#A04701"/>
<stop offset="0.68" stop-color="#DB9414"/>
<stop offset="0.7" stop-color="#FEC220"/>
<stop offset="0.81" stop-color="#E89A04"/>
<stop offset="0.82" stop-color="#EBA412"/>
<stop offset="0.83" stop-color="#F2B92F"/>
<stop offset="0.85" stop-color="#F7C946"/>
<stop offset="0.86" stop-color="#FBD556"/>
<stop offset="0.88" stop-color="#FDDC60"/>
<stop offset="0.9" stop-color="#FEDE63"/>
<stop offset="1" stop-color="#FCC643"/>
</linearGradient>
<radialGradient id="paint3_radial_2042_356" cx="0" cy="0" r="1" gradientUnits="userSpaceOnUse" gradientTransform="translate(15.4402 11.8509) rotate(145.548) scale(14.9713 6.37552)">
<stop stop-color="#FEDE6D"/>
<stop offset="1" stop-color="#F2AC1A"/>
</radialGradient>
<linearGradient id="paint4_linear_2042_356" x1="9.8041" y1="17.641" x2="23.1306" y2="8.46338" gradientUnits="userSpaceOnUse">
<stop offset="0.16" stop-color="#D27B00"/>
<stop offset="0.25" stop-color="#CD7500"/>
<stop offset="0.37" stop-color="#BF6500"/>
<stop offset="0.5" stop-color="#A84A00"/>
<stop offset="0.54" stop-color="#9F4000"/>
<stop offset="0.61" stop-color="#A04701"/>
<stop offset="0.71" stop-color="#E08600"/>
<stop offset="1" stop-color="#9F5800"/>
</linearGradient>
<linearGradient id="paint5_linear_2042_356" x1="11.8758" y1="5.61649" x2="21.8081" y2="19.4312" gradientUnits="userSpaceOnUse">
<stop stop-color="#FFE48C"/>
<stop offset="0.41" stop-color="#FFF4A5"/>
<stop offset="0.46" stop-color="#FFF29F"/>
<stop offset="0.53" stop-color="#FFED8F"/>
<stop offset="0.61" stop-color="#FFE474"/>
<stop offset="0.7" stop-color="#FFD84F"/>
<stop offset="0.77" stop-color="#FFCB29"/>
<stop offset="0.86" stop-color="#FEE275"/>
<stop offset="0.94" stop-color="#FEE47E"/>
</linearGradient>
<linearGradient id="paint6_linear_2042_356" x1="16.7684" y1="-0.322212" x2="15.6985" y2="25.7421" gradientUnits="userSpaceOnUse">
<stop stop-color="#FFD651"/>
<stop offset="0.41" stop-color="#FFEC60"/>
<stop offset="0.48" stop-color="#FFE95A"/>
<stop offset="0.58" stop-color="#FFE14A"/>
<stop offset="0.69" stop-color="#FFD32F"/>
<stop offset="0.77" stop-color="#FFC718"/>
<stop offset="0.86" stop-color="#FED844"/>
<stop offset="0.94" stop-color="#FED949"/>
</linearGradient>
<linearGradient id="paint7_linear_2042_356" x1="29.8809" y1="14.6525" x2="18.0032" y2="13.4664" gradientUnits="userSpaceOnUse">
<stop stop-color="#B7B7B7"/>
<stop offset="1"/>
</linearGradient>
</defs>
</svg>
