<svg width="79" height="72" viewBox="0 0 79 72" fill="none" xmlns="http://www.w3.org/2000/svg">
<path d="M30.0601 15.9908C23.6913 18.9066 18.1616 23.3776 13.9832 28.9899C3.83424 43.0477 7.70828 59.0057 22.6445 64.7174C31.6311 68.1436 42.5502 67.0918 51.9867 62.6765C58.3547 59.7672 63.8806 55.2957 68.0483 49.6798C78.2125 35.6196 74.3361 19.6464 59.387 13.9523C50.4157 10.5237 39.4965 11.5755 30.0448 15.9932L30.0601 15.9908Z" fill="url(#paint0_linear_2010_119)"/>
<path d="M72.2408 23.5141L69.8657 18.3502L69.1813 18.6621C66.5654 15.6767 63.249 13.395 59.534 12.0246C50.3919 8.49235 39.2913 9.56775 29.6261 14.1039C23.1472 17.074 17.5256 21.647 13.2866 27.3956C8.49762 34.0498 6.79065 41.1437 7.84352 47.426L7.14625 47.7556L9.48993 52.7204C12.0783 58.0229 16.6465 62.0851 22.1983 64.0214C31.3228 67.5407 42.4386 66.4629 52.1062 61.9421C58.5856 58.9667 64.2064 54.3885 68.4433 48.6351C74.5732 40.0908 75.6585 30.8356 72.2865 23.5069L72.2408 23.5141Z" fill="url(#paint1_linear_2010_119)"/>
<path d="M27.0527 9.15998C20.4993 12.1408 14.8096 16.7224 10.5151 22.4768C0.0629413 36.8571 4.04233 53.2899 19.444 59.0939C28.6597 62.596 39.8963 61.4988 49.6753 56.9622C56.2205 53.9643 61.9017 49.3742 66.1925 43.6172C76.6446 29.2369 72.6652 12.8041 57.2659 7.01538C48.0324 3.50041 36.8114 4.59519 27.0349 9.14711L27.0527 9.15998Z" fill="url(#paint2_linear_2010_119)"/>
<g style="mix-blend-mode:multiply">
<path d="M29.2159 14.4406C24.1192 16.7757 19.6935 20.3511 16.3471 24.8369C8.20261 36.0555 11.3059 48.854 23.2769 53.4226C30.4743 56.1583 39.2157 55.313 46.8226 51.7633C51.9335 49.4429 56.368 45.864 59.7069 41.3645C67.8515 30.1459 64.748 17.3474 52.777 12.7788C45.5796 10.0431 36.8382 10.8885 29.2159 14.4406Z" fill="#D0A662"/>
</g>
<path d="M46.791 51.319C39.1574 54.8989 30.3665 55.7461 23.1526 52.9703C11.1286 48.3388 7.99864 35.3978 16.1634 24.0664C19.5152 19.5328 23.9555 15.9227 29.0723 13.5714C36.7058 9.99156 45.4968 9.14429 52.7131 11.9356C64.7501 16.5492 67.8802 29.4902 59.7155 40.8215C56.3681 45.3662 51.9198 48.9792 46.791 51.319ZM26.7154 8.54065C20.2231 11.5077 14.5903 16.0809 10.3456 21.831C-0.0347544 36.1415 3.9641 52.5893 19.277 58.445C28.4242 61.9616 39.5644 60.8866 49.2428 56.3506C55.6973 53.3723 61.2916 48.8002 65.5022 43.0619C75.8826 28.7514 71.8862 12.319 56.5708 6.44788C47.4236 2.93125 36.2834 4.00631 26.6204 8.53979L26.7154 8.54065Z" fill="url(#paint3_linear_2010_119)"/>
<path d="M55.4973 25.7263L51.3641 24.1111L50.3875 25.4929C50.1396 25.082 49.8552 24.6948 49.5379 24.336C49.133 23.8394 48.6818 23.3833 48.1907 22.9742L50.8078 19.3031L50.4301 18.4811L49.5641 18.6963L49.5762 18.7731L46.8061 17.6356L44.5219 20.8608C43.3082 20.3824 42.0333 20.0849 40.7369 19.9778C39.4508 19.8537 38.1546 19.915 36.8871 20.1597C35.9926 20.344 35.1217 20.6291 34.2906 21.0098C33.9896 21.1674 33.6887 21.3251 33.3901 21.4981C32.2827 22.1502 31.3272 23.0362 30.5882 24.0964C29.6636 25.2195 29.1023 26.6047 28.98 28.0651C28.9522 29.1612 29.2197 30.2456 29.7538 31.2016C30.3126 32.149 31.0387 32.9845 31.8954 33.6661L34.3651 35.6537C35.0183 36.1558 35.6058 36.7404 36.1133 37.3931C36.2903 37.6145 36.3894 37.8893 36.3948 38.1737C36.4003 38.4581 36.3118 38.7358 36.1435 38.9625C35.9712 39.1836 35.7488 39.359 35.495 39.474C35.3101 39.5578 35.1182 39.6249 34.9215 39.6746C34.2335 39.7989 33.5236 39.7136 32.8815 39.4295C32.3519 39.247 31.8656 38.9535 31.4547 38.568C31.0437 38.1825 30.7173 37.7137 30.4965 37.1924C30.2785 36.626 30.1799 36.0201 30.2072 35.4138C30.2346 34.8075 30.3873 34.2143 30.6552 33.6727L30.2798 32.8661L29.5816 33.2595L25.4309 31.6313L20.7839 38.1727L19.1877 39.0697L19.5656 39.8917L24.79 41.9331L25.7413 40.5867C26.4537 41.6837 27.3512 42.6454 28.3922 43.4273L26.665 45.8563L25.56 46.0305L25.9379 46.8525L30.0207 48.4441L32.2588 45.3207C33.4923 45.7357 34.7641 46.0205 36.0542 46.1706C37.3094 46.3331 38.5809 46.3025 39.8254 46.0798C40.731 45.9238 41.6106 45.6421 42.4395 45.2427C42.7277 45.1028 43.0007 44.9653 43.2841 44.7947C44.3926 44.1328 45.3464 43.2361 46.081 42.1656C47.018 41.0177 47.5955 39.6115 47.7402 38.126C47.7734 37.0137 47.5032 35.9124 46.9593 34.9433C46.3787 33.9848 45.6358 33.1373 44.765 32.44L42.2426 30.4134C41.5771 29.8968 40.9652 29.3129 40.4164 28.6706C40.2211 28.4618 40.106 28.1892 40.0921 27.9024C40.0782 27.6157 40.1665 27.3338 40.3407 27.1083C40.5149 26.8511 40.7573 26.6492 41.0401 26.5258C41.2506 26.4251 41.477 26.3628 41.7092 26.3416C42.3069 26.2776 42.9117 26.3491 43.4801 26.5507C44.0485 26.7524 44.5662 27.0793 44.9958 27.5078C45.3782 27.8705 45.6803 28.3112 45.8822 28.8006C46.0739 29.2887 46.1566 29.8133 46.1244 30.3366C46.1181 30.5205 46.095 30.7033 46.0553 30.8827L45.2972 31.1912L45.6726 31.9978L50.9473 34.0627L56.6901 26.0105L56.3124 25.1885L55.4973 25.7263Z" fill="url(#paint4_linear_2010_119)"/>
<path d="M33.984 20.3836C33.6734 20.5267 33.3702 20.6844 33.0746 20.8566C31.9569 21.518 30.9903 22.4085 30.2379 23.4701C29.314 24.5968 28.7482 25.9765 28.6134 27.431C28.5894 28.5198 28.8614 29.595 29.4003 30.5407C29.9561 31.4888 30.6864 32.322 31.5522 32.9957L34.0352 34.9747C34.7104 35.4748 35.3256 36.0521 35.8682 36.695C36.0671 36.92 36.1802 37.2084 36.1876 37.5091C36.1949 37.8097 36.096 38.103 35.9084 38.337C35.7411 38.5641 35.5152 38.7409 35.255 38.8481C35.0716 38.939 34.8776 39.0065 34.6775 39.0491C33.9854 39.1891 33.2665 39.1045 32.6246 38.8076C32.0925 38.6272 31.6035 38.3376 31.1886 37.957C30.7736 37.5765 30.4419 37.1135 30.2146 36.5973C29.9971 36.0315 29.9007 35.4262 29.9317 34.8208C29.9627 34.2154 30.1205 33.6236 30.3948 33.084L25.1395 31.0555L19.2218 39.288L24.477 41.3165L25.4389 39.9875C26.1612 41.0752 27.062 42.032 28.1028 42.817L25.6276 46.237L29.7346 47.8186L31.9765 44.7023C33.2215 45.1178 34.5068 45.3993 35.8106 45.5421C37.0737 45.7023 38.3533 45.67 39.6062 45.446C40.5179 45.289 41.4036 45.0068 42.2384 44.6072C42.5432 44.5591 42.8037 44.3297 43.0916 44.1744C44.2005 43.5022 45.16 42.6082 45.9107 41.548C46.8525 40.3942 47.4345 38.9865 47.5841 37.5009C47.6227 36.3951 47.3471 35.3006 46.7898 34.3453C46.2213 33.3833 45.4786 32.5366 44.6001 31.8491L42.0619 29.8161C41.3972 29.3033 40.7833 28.7272 40.2289 28.0957C40.0327 27.8878 39.9173 27.616 39.9038 27.33C39.8902 27.044 39.9793 26.7628 40.155 26.5376C40.3347 26.2911 40.5713 26.0922 40.8445 25.9579C41.0618 25.8565 41.2947 25.7932 41.5334 25.7709C42.1759 25.712 42.8233 25.8091 43.4211 26.0541C43.9376 26.2432 44.4063 26.5445 44.7939 26.9365C45.3969 27.4996 45.7948 28.2495 45.9235 29.066C46.0523 29.8826 45.9044 30.7185 45.5039 31.4398L50.8097 33.4917L56.5992 25.4364L51.2782 23.3869L50.2932 24.7666C50.0387 24.3609 49.7534 23.9755 49.4398 23.6139C49.0334 23.1187 48.5799 22.6645 48.0859 22.2575L50.601 18.5958L46.5093 17.0118L44.2032 20.2167C42.9802 19.7482 41.6984 19.4536 40.3949 19.3415C39.1007 19.2245 37.7968 19.2926 36.5223 19.5439C35.618 19.7146 34.7394 20.0009 33.9077 20.3956L33.984 20.3836Z" fill="url(#paint5_linear_2010_119)"/>
<defs>
<linearGradient id="paint0_linear_2010_119" x1="38.0442" y1="12.6381" x2="44.1893" y2="65.7062" gradientUnits="userSpaceOnUse">
<stop offset="0.16" stop-color="#FFF8C7"/>
<stop offset="0.2" stop-color="#FFF6C1"/>
<stop offset="0.25" stop-color="#FFF0B1"/>
<stop offset="0.3" stop-color="#FEE696"/>
<stop offset="0.36" stop-color="#FED871"/>
<stop offset="0.42" stop-color="#FDC741"/>
<stop offset="0.47" stop-color="#FCB717"/>
<stop offset="0.54" stop-color="#B55D05"/>
<stop offset="0.56" stop-color="#9F4200"/>
<stop offset="0.61" stop-color="#A04701"/>
<stop offset="0.65" stop-color="#DB9414"/>
<stop offset="0.66" stop-color="#FEC220"/>
<stop offset="0.81" stop-color="#E89A04"/>
<stop offset="0.82" stop-color="#EBA412"/>
<stop offset="0.83" stop-color="#F2B92F"/>
<stop offset="0.84" stop-color="#F7C946"/>
<stop offset="0.86" stop-color="#FBD556"/>
<stop offset="0.88" stop-color="#FDDC60"/>
<stop offset="0.9" stop-color="#FEDE63"/>
<stop offset="1" stop-color="#FCC643"/>
</linearGradient>
<linearGradient id="paint1_linear_2010_119" x1="4.01589" y1="58.2488" x2="66.742" y2="28.8109" gradientUnits="userSpaceOnUse">
<stop stop-color="#EBAB00"/>
<stop offset="0.08" stop-color="#FFC524"/>
<stop offset="0.15" stop-color="#FFD759"/>
<stop offset="0.41" stop-color="#FFF4A5"/>
<stop offset="0.42" stop-color="#FFF09F"/>
<stop offset="0.44" stop-color="#FDE68F"/>
<stop offset="0.46" stop-color="#FBD674"/>
<stop offset="0.48" stop-color="#F8BF4F"/>
<stop offset="0.5" stop-color="#F4A120"/>
<stop offset="0.52" stop-color="#F28E00"/>
<stop offset="0.56" stop-color="#CA4E00"/>
<stop offset="0.61" stop-color="#A14D00"/>
<stop offset="0.65" stop-color="#EBA500"/>
<stop offset="0.66" stop-color="#F0B116"/>
<stop offset="0.67" stop-color="#F6C137"/>
<stop offset="0.68" stop-color="#FBCD4E"/>
<stop offset="0.69" stop-color="#FFD761"/>
<stop offset="0.73" stop-color="#FFD75F"/>
<stop offset="0.75" stop-color="#FFD558"/>
<stop offset="0.76" stop-color="#FFCF3C"/>
<stop offset="0.77" stop-color="#FFCB29"/>
<stop offset="0.78" stop-color="#FCC524"/>
<stop offset="0.8" stop-color="#F4B418"/>
<stop offset="0.82" stop-color="#E9A216"/>
<stop offset="0.83" stop-color="#F5C64B"/>
<stop offset="0.84" stop-color="#FCDB6B"/>
<stop offset="0.85" stop-color="#FEE173"/>
<stop offset="0.86" stop-color="#FEE275"/>
<stop offset="0.94" stop-color="#FEE47E"/>
<stop offset="1" stop-color="#FED94B"/>
</linearGradient>
<linearGradient id="paint2_linear_2010_119" x1="35.2811" y1="5.70538" x2="41.5861" y2="60.0798" gradientUnits="userSpaceOnUse">
<stop offset="0.16" stop-color="#DE8200"/>
<stop offset="0.21" stop-color="#E18802"/>
<stop offset="0.27" stop-color="#E89809"/>
<stop offset="0.34" stop-color="#F3B314"/>
<stop offset="0.37" stop-color="#F8BD18"/>
<stop offset="0.43" stop-color="#F6AD1A"/>
<stop offset="0.47" stop-color="#F49F1C"/>
<stop offset="0.54" stop-color="#9F4000"/>
<stop offset="0.61" stop-color="#A04701"/>
<stop offset="0.71" stop-color="#FEC423"/>
<stop offset="1" stop-color="#B66300"/>
</linearGradient>
<linearGradient id="paint3_linear_2010_119" x1="70.4909" y1="28.5319" x2="5.98261" y2="36.0028" gradientUnits="userSpaceOnUse">
<stop stop-color="#EFA611"/>
<stop offset="0.41" stop-color="#FFC500"/>
<stop offset="0.53" stop-color="#FDBF00"/>
<stop offset="0.7" stop-color="#F6AF00"/>
<stop offset="0.88" stop-color="#EA9400"/>
<stop offset="1" stop-color="#E17F00"/>
</linearGradient>
<linearGradient id="paint4_linear_2010_119" x1="25.1797" y1="22.7956" x2="46.7341" y2="68.097" gradientUnits="userSpaceOnUse">
<stop offset="0.16" stop-color="#CA7700"/>
<stop offset="0.26" stop-color="#C67100"/>
<stop offset="0.38" stop-color="#B96100"/>
<stop offset="0.51" stop-color="#A44600"/>
<stop offset="0.54" stop-color="#9F4000"/>
<stop offset="0.61" stop-color="#A04701"/>
<stop offset="0.71" stop-color="#B35C00"/>
<stop offset="1" stop-color="#9F5800"/>
</linearGradient>
<linearGradient id="paint5_linear_2010_119" x1="24.8654" y1="22.0491" x2="46.2598" y2="67.3136" gradientUnits="userSpaceOnUse">
<stop stop-color="#EFA611"/>
<stop offset="0.41" stop-color="#FFC500"/>
<stop offset="0.52" stop-color="#FDBF00"/>
<stop offset="0.66" stop-color="#F6AF00"/>
<stop offset="0.77" stop-color="#EF9E00"/>
<stop offset="1" stop-color="#C26B00"/>
</linearGradient>
</defs>
</svg>
