<svg width="97" height="106" viewBox="0 0 97 106" fill="none" xmlns="http://www.w3.org/2000/svg">
<path d="M52.8056 37.1904C22.6127 57.7295 5.41495 85.3545 14.3708 98.8076C23.3267 112.261 55.0496 106.263 85.2221 85.642C115.395 65.0208 132.572 37.4984 123.636 24.148C114.701 10.7976 82.9576 16.6923 52.8056 37.293V37.1904Z" fill="url(#paint0_linear_2010_99)"/>
<path d="M9.61017 78.6395C14.421 64.7701 29.268 47.6386 50.1079 33.6461C70.9477 19.6536 92.4719 12.3496 107.236 13.1292L114.888 8L123.638 20.8434V20.9667V21.0898L123.742 21.2538C132.555 34.918 114.805 62.6363 83.8456 83.4404C52.8865 104.244 20.6626 110.153 11.0202 97.043L2 83.7687L9.61017 78.6395Z" fill="url(#paint1_linear_2010_99)"/>
<path d="M41.5004 20.993C10.8758 42.3231 -6.70268 70.7981 2.40302 84.6073C11.5087 98.4165 43.787 92.3162 74.4932 71.007C105.199 49.6978 122.696 21.2019 113.591 7.39272C104.485 -6.41648 72.2066 -0.316177 41.5004 20.993Z" fill="url(#paint2_linear_2010_99)"/>
<path d="M15.7668 74.6165C22.6393 84.9259 47.5728 79.9775 71.4426 63.6267C95.3124 47.2759 109.119 25.6879 102.226 15.3785C95.3329 5.06902 70.4199 10.0382 46.5501 26.3684C22.6803 42.6985 8.89426 64.3483 15.7668 74.6165Z" fill="url(#paint3_radial_2010_99)"/>
<path d="M53.2513 29.0771L44.9074 34.6737L46.9934 37.6872C44.6151 39.2701 42.3436 41.0026 40.193 42.8738C38.3277 44.4629 36.6104 46.2123 35.0615 48.1013C33.8689 49.5018 32.9368 51.0979 32.308 52.8163C32.0581 53.4196 31.958 54.0726 32.016 54.7215C32.0741 55.3703 32.2886 55.9963 32.6417 56.5474C33.1071 57.2295 33.7478 57.7785 34.4989 58.1386C35.2499 58.4986 36.0846 58.6569 36.918 58.5974C39.0536 58.5337 41.1655 58.1393 43.176 57.4289C45.6093 56.6057 47.9795 55.6123 50.2684 54.4563L57.0478 51.0123C59.1338 49.9668 60.9069 49.1468 62.388 48.5728C63.869 47.9988 64.8077 47.9578 65.1623 48.4703C65.517 48.9828 65.1624 49.3313 64.62 50.0898C63.6704 51.1904 62.5513 52.1381 61.3033 52.8983C59.1543 54.3778 56.7722 55.4999 54.2526 56.2194C52.448 56.8776 50.4557 56.8336 48.683 56.0964L37.9193 63.2715L43.2386 71L53.9814 63.8249L53.1262 62.5745C55.9907 61.5268 58.7786 60.287 61.4702 58.8639L63.6813 62.0825L72.0252 56.4858L69.9392 53.5543C72.4007 51.8528 74.6536 50.1308 76.7396 48.3678C78.6208 46.8053 80.3588 45.0835 81.9337 43.2223C83.1296 41.8434 84.0688 40.268 84.7081 38.5687C84.9519 37.9622 85.045 37.3074 84.9797 36.6585C84.9144 36.0097 84.6926 35.3854 84.3326 34.8376C83.8558 34.1521 83.2039 33.6019 82.4423 33.2421C81.6808 32.8822 80.8364 32.7254 79.9937 32.7876C77.8569 32.8393 75.743 33.234 73.7358 33.9561C71.2534 34.7899 68.8404 35.8111 66.5183 37.0106L59.5927 40.4957C57.5068 41.5617 55.6711 42.4022 54.1692 43.0377C52.6673 43.6732 51.7077 43.7142 51.3531 43.2017C50.9985 42.6892 51.3531 42.1768 52.0206 41.3568C52.9563 40.3835 54.0067 39.5232 55.1496 38.7943C56.2256 38.0705 57.3632 37.4394 58.5498 36.9082C59.6427 36.3919 60.7807 35.9735 61.9499 35.6577C62.9065 35.3861 63.8956 35.2413 64.8912 35.2271C65.6291 35.1853 66.3609 35.3796 66.9772 35.7807L77.8661 28.5237L72.6719 21L61.8039 28.2366L62.68 29.5282C61.8248 29.8152 60.8026 30.2252 59.5927 30.7172C58.3829 31.2092 57.027 31.8652 55.5668 32.5827L53.1888 29.1386L53.2513 29.0771Z" fill="url(#paint4_linear_2010_99)"/>
<path d="M52.4664 27.187L44.4385 33.0287L46.4455 36.1415C44.151 37.7877 41.9588 39.5894 39.8827 41.5355C38.0931 43.1938 36.4413 45.0127 34.9455 46.9721C33.8118 48.4387 32.9165 50.0961 32.2963 51.8758C32.0559 52.5032 31.9596 53.1824 32.0154 53.8572C32.0713 54.532 32.2776 55.1828 32.6174 55.756C33.0651 56.4654 33.6816 57.0364 34.4042 57.4108C35.1268 57.7853 35.9298 57.9499 36.7317 57.888C38.7864 57.8218 40.8183 57.4117 42.7526 56.6729C45.0985 55.8298 47.3798 54.7963 49.5764 53.5814L56.099 50.0209C57.7681 49.0728 59.4831 48.2189 61.2369 47.4625C62.6819 46.8656 63.565 46.8229 63.9061 47.4625C64.2473 48.1022 63.9061 48.358 63.3843 49.1681C62.4634 50.299 61.3877 51.2764 60.1932 52.0676C58.1256 53.6063 55.8338 54.7731 53.4097 55.5215C51.6864 56.2341 49.7743 56.2341 48.051 55.5215L37.7152 62.9622L42.8128 71L53.1488 63.5379L52.3259 62.2374C55.078 61.1462 57.7598 59.8643 60.3538 58.3998L62.4812 61.7258L70.5091 55.9053L68.5021 52.8565C70.8704 51.0869 73.0378 49.2961 75.0448 47.4625C76.8548 45.8375 78.527 44.0468 80.0422 42.1112C81.1998 40.6824 82.1041 39.0427 82.7115 37.2714C82.949 36.6424 83.0419 35.9623 82.9826 35.2875C82.9233 34.6127 82.7133 33.9626 82.3702 33.3911C81.9069 32.678 81.2759 32.106 80.5401 31.732C79.8043 31.358 78.9892 31.195 78.1757 31.2591C76.12 31.3148 74.0864 31.7252 72.1548 32.4744C69.7678 33.3454 67.4465 34.4073 65.2107 35.6511L58.5676 39.2755C56.5606 40.3842 54.7945 41.2796 53.3294 41.9192C51.8643 42.5588 50.9612 42.6228 50.62 42.0898C50.2788 41.5568 50.62 41.0238 51.2622 40.1709C52.1625 39.1587 53.1731 38.264 54.2727 37.5059C55.3125 36.761 56.4064 36.1052 57.544 35.5445C58.5968 35.0108 59.6914 34.5757 60.8154 34.244C61.7357 33.9616 62.6874 33.811 63.6452 33.7962C64.3547 33.7573 65.0575 33.9589 65.6522 34.3719L76.1085 26.8246L71.1313 19L60.6548 26.5261L61.5178 27.8693C60.695 28.1678 59.6915 28.5941 58.5274 29.1058C57.3634 29.6174 56.0589 30.2998 54.654 31.046L52.3661 27.4642L52.4664 27.187Z" fill="url(#paint5_linear_2010_99)"/>
<path d="M69.8028 62.878C45.9722 78.972 20.8358 83.5645 13.8784 73.1603C6.92105 62.756 20.387 41.2161 44.2176 25.122C68.0482 9.02796 93.0621 4.41514 100.122 14.9616C107.181 25.5081 93.613 46.8855 69.8028 62.9795V62.878ZM40.7899 20.0824C10.614 40.4032 -6.58568 67.7143 2.3712 80.9228C11.3281 94.1313 43.0342 88.3197 73.2101 67.9176C103.386 47.5155 120.586 20.2857 111.629 7.07716C102.672 -6.13136 70.9658 -0.319685 40.7899 20.0824Z" fill="url(#paint6_linear_2010_99)"/>
<path style="mix-blend-mode:screen" d="M35 86C37.3413 82.8809 39.6827 79.7006 41.9829 76.4999C51.7709 73.3862 61.0439 68.8594 69.5038 63.0651C93.4716 46.9189 107.129 25.3294 100.023 14.8915C95.7307 8.57164 84.8661 7.75623 71.6397 11.6297C71.9272 8.93865 72.0505 6.41068 72.0915 4.08661C90.4114 -2.02937 105.794 -1.47887 111.607 7.08351C120.623 20.3348 103.391 47.6529 72.9336 68.121C61.3667 76.1128 48.5498 82.1536 35 86Z" fill="url(#paint7_linear_2010_99)"/>
<defs>
<linearGradient id="paint0_linear_2010_99" x1="13.1028" y1="59.0091" x2="124.561" y2="63.5717" gradientUnits="userSpaceOnUse">
<stop offset="0.16" stop-color="#DE8200"/>
<stop offset="0.21" stop-color="#E18802"/>
<stop offset="0.27" stop-color="#E89809"/>
<stop offset="0.34" stop-color="#F3B314"/>
<stop offset="0.37" stop-color="#F8BD18"/>
<stop offset="0.43" stop-color="#F6AD1A"/>
<stop offset="0.47" stop-color="#F49F1C"/>
<stop offset="0.54" stop-color="#9F4000"/>
<stop offset="0.61" stop-color="#A04701"/>
<stop offset="0.71" stop-color="#FEC423"/>
<stop offset="1" stop-color="#B66300"/>
</linearGradient>
<linearGradient id="paint1_linear_2010_99" x1="120.741" y1="24.9001" x2="8.19789" y2="101.645" gradientUnits="userSpaceOnUse">
<stop stop-color="#EBAB00"/>
<stop offset="0.08" stop-color="#FFC524"/>
<stop offset="0.15" stop-color="#FFD759"/>
<stop offset="0.41" stop-color="#FFF4A5"/>
<stop offset="0.42" stop-color="#FFF09F"/>
<stop offset="0.44" stop-color="#FDE68F"/>
<stop offset="0.46" stop-color="#FBD674"/>
<stop offset="0.48" stop-color="#F8BF4F"/>
<stop offset="0.5" stop-color="#F4A120"/>
<stop offset="0.52" stop-color="#F28E00"/>
<stop offset="0.56" stop-color="#CA4E00"/>
<stop offset="0.61" stop-color="#A14D00"/>
<stop offset="0.65" stop-color="#EBA500"/>
<stop offset="0.66" stop-color="#F0B116"/>
<stop offset="0.67" stop-color="#F6C137"/>
<stop offset="0.68" stop-color="#FBCD4E"/>
<stop offset="0.69" stop-color="#FFD761"/>
<stop offset="0.73" stop-color="#FFD75F"/>
<stop offset="0.75" stop-color="#FFD558"/>
<stop offset="0.76" stop-color="#FFCF3C"/>
<stop offset="0.77" stop-color="#FFCB29"/>
<stop offset="0.78" stop-color="#FCC524"/>
<stop offset="0.8" stop-color="#F4B418"/>
<stop offset="0.82" stop-color="#E9A216"/>
<stop offset="0.83" stop-color="#F5C64B"/>
<stop offset="0.84" stop-color="#FCDB6B"/>
<stop offset="0.85" stop-color="#FEE173"/>
<stop offset="0.86" stop-color="#FEE275"/>
<stop offset="0.94" stop-color="#FEE47E"/>
<stop offset="1" stop-color="#FED94B"/>
</linearGradient>
<linearGradient id="paint2_linear_2010_99" x1="1.11303" y1="43.5615" x2="114.561" y2="48.1307" gradientUnits="userSpaceOnUse">
<stop offset="0.16" stop-color="#FFF8C7"/>
<stop offset="0.2" stop-color="#FFF6C1"/>
<stop offset="0.25" stop-color="#FFF0B1"/>
<stop offset="0.3" stop-color="#FEE696"/>
<stop offset="0.36" stop-color="#FED871"/>
<stop offset="0.42" stop-color="#FDC741"/>
<stop offset="0.47" stop-color="#FCB717"/>
<stop offset="0.56" stop-color="#B55D05"/>
<stop offset="0.58" stop-color="#9F4200"/>
<stop offset="0.63" stop-color="#A04701"/>
<stop offset="0.68" stop-color="#DB9414"/>
<stop offset="0.7" stop-color="#FEC220"/>
<stop offset="0.81" stop-color="#E89A04"/>
<stop offset="0.82" stop-color="#EBA412"/>
<stop offset="0.83" stop-color="#F2B92F"/>
<stop offset="0.85" stop-color="#F7C946"/>
<stop offset="0.86" stop-color="#FBD556"/>
<stop offset="0.88" stop-color="#FDDC60"/>
<stop offset="0.9" stop-color="#FEDE63"/>
<stop offset="1" stop-color="#FCC643"/>
</linearGradient>
<radialGradient id="paint3_radial_2010_99" cx="0" cy="0" r="1" gradientUnits="userSpaceOnUse" gradientTransform="translate(54.0408 41.4781) rotate(145.548) scale(52.3994 22.3143)">
<stop stop-color="#FEDE6D"/>
<stop offset="1" stop-color="#F2AC1A"/>
</radialGradient>
<linearGradient id="paint4_linear_2010_99" x1="34.3153" y1="61.7435" x2="80.9582" y2="29.6218" gradientUnits="userSpaceOnUse">
<stop offset="0.16" stop-color="#D27B00"/>
<stop offset="0.25" stop-color="#CD7500"/>
<stop offset="0.37" stop-color="#BF6500"/>
<stop offset="0.5" stop-color="#A84A00"/>
<stop offset="0.54" stop-color="#9F4000"/>
<stop offset="0.61" stop-color="#A04701"/>
<stop offset="0.71" stop-color="#E08600"/>
<stop offset="1" stop-color="#9F5800"/>
</linearGradient>
<linearGradient id="paint5_linear_2010_99" x1="41.5662" y1="19.6578" x2="76.3293" y2="68.0093" gradientUnits="userSpaceOnUse">
<stop stop-color="#FFE48C"/>
<stop offset="0.41" stop-color="#FFF4A5"/>
<stop offset="0.46" stop-color="#FFF29F"/>
<stop offset="0.53" stop-color="#FFED8F"/>
<stop offset="0.61" stop-color="#FFE474"/>
<stop offset="0.7" stop-color="#FFD84F"/>
<stop offset="0.77" stop-color="#FFCB29"/>
<stop offset="0.86" stop-color="#FEE275"/>
<stop offset="0.94" stop-color="#FEE47E"/>
</linearGradient>
<linearGradient id="paint6_linear_2010_99" x1="58.6894" y1="-1.12774" x2="54.9448" y2="90.0973" gradientUnits="userSpaceOnUse">
<stop stop-color="#FFD651"/>
<stop offset="0.41" stop-color="#FFEC60"/>
<stop offset="0.48" stop-color="#FFE95A"/>
<stop offset="0.58" stop-color="#FFE14A"/>
<stop offset="0.69" stop-color="#FFD32F"/>
<stop offset="0.77" stop-color="#FFC718"/>
<stop offset="0.86" stop-color="#FED844"/>
<stop offset="0.94" stop-color="#FED949"/>
</linearGradient>
<linearGradient id="paint7_linear_2010_99" x1="104.583" y1="51.2839" x2="63.0112" y2="47.1325" gradientUnits="userSpaceOnUse">
<stop stop-color="#B7B7B7"/>
<stop offset="1"/>
</linearGradient>
</defs>
</svg>
